<?xml version="1.0" encoding="UTF-8"?>
<svg width="230px" height="60px" viewBox="0 0 230 60" version="1.1" xmlns="http://www.w3.org/2000/svg" xmlns:xlink="http://www.w3.org/1999/xlink">
    <title>Group 28</title>
    <defs>
        <path d="M19.4239952,45.747545 L18.4539685,45.747545 L18.4539685,37.9677493 L16.8450721,37.9677493 L16.8450721,45.747545 L15.3209415,45.747545 L15.3209415,37.9677493 L13.7120451,37.9677493 L13.7120451,45.747545 L7.20318561,45.747545 L7.20318561,37.9677493 L4.95073061,37.9677493 L4.95073061,46.0811841 C4.95073061,47.1391944 5.81156375,48 6.86954646,48 L19.7572666,48 C20.8152769,48 21.6760824,47.1391669 21.6760824,46.0811841 L21.6760824,37.9677493 L19.4236274,37.9677493 L19.4239952,45.747545 Z M23.359981,0 C25.108685,0 26.5425916,1.3733494 26.6394024,3.09849443 L26.644612,3.28463102 L26.644612,4.58930812 L27.2687816,4.58949199 C28.5119606,4.58949199 29.5330751,5.55889183 29.6160097,6.78198057 L29.6214479,6.94289375 L29.6210888,30.2213267 C29.6210888,31.4648581 28.651689,32.4859873 27.4289239,32.5689225 L27.2680548,32.5743607 L26.644612,32.5743607 L26.644612,33.8794056 C26.644612,35.6281095 25.2712626,37.0620162 23.5461176,37.158827 L23.359981,37.1640366 L3.28463102,37.1640366 C1.5362821,37.1640366 0.102044864,35.7906872 0.00521084426,34.0655421 L0,33.8794056 L0,3.28463102 C0,1.5362821 1.3733494,0.102044864 3.09849443,0.00521084426 L3.28463102,0 L23.359981,0 Z M23.3592639,2.25254694 L3.28391391,2.25254694 C2.75260911,2.25254694 2.31393328,2.65583449 2.25780452,3.17240178 L2.2517379,3.28472295 L2.2517379,33.8785781 C2.2517379,34.4098829 2.65502545,34.8485588 3.17159273,34.9046875 L3.28391391,34.9107541 L23.3592639,34.9107541 C23.8905687,34.9107541 24.3292445,34.5074666 24.3853733,33.9908993 L24.3914399,33.8785781 L24.3914399,3.28472295 C24.3914399,2.71546782 23.9284823,2.25254694 23.3592639,2.25254694 Z M8.48625753,28.1866703 C8.93049682,28.1866703 9.29070575,28.5465207 9.29070575,28.9911185 L9.29070575,28.9911185 L9.29070575,32.0077533 C9.29070575,32.4519926 8.93049682,32.8122016 8.48625753,32.8122016 L8.48625753,32.8122016 L4.71114295,32.8122016 C4.26690366,32.8122016 3.90669473,32.4519926 3.90669473,32.0077533 L3.90669473,32.0077533 L3.90669473,28.9911185 C3.90669473,28.5468792 4.26690366,28.1866703 4.71114295,28.1866703 L4.71114295,28.1866703 Z M15.2013316,28.1866703 C15.6455708,28.1866703 16.0057798,28.5465207 16.0057798,28.9911185 L16.0057798,28.9911185 L16.0057798,32.0077533 C16.0057798,32.4519926 15.6455708,32.8122016 15.2013316,32.8122016 L15.2013316,32.8122016 L11.426217,32.8122016 C10.9819777,32.8122016 10.6217688,32.4519926 10.6217688,32.0077533 L10.6217688,32.0077533 L10.6217688,28.9911185 C10.6217688,28.5468792 10.9819777,28.1866703 11.426217,28.1866703 L11.426217,28.1866703 Z M21.9164056,28.1866703 C22.3610034,28.1866703 22.7208538,28.5465207 22.7208538,28.9911185 L22.7208538,28.9911185 L22.7208538,32.0077533 C22.7208538,32.4519926 22.3606449,32.8122016 21.9164056,32.8122016 L21.9164056,32.8122016 L18.141291,32.8122016 C17.6970517,32.8122016 17.3368428,32.4519926 17.3368428,32.0077533 L17.3368428,32.0077533 L17.3368428,28.9911185 C17.3368428,28.5468792 17.6970517,28.1866703 18.141291,28.1866703 L18.141291,28.1866703 Z M7.68180932,29.7955667 L5.51559116,29.7955667 L5.51559116,31.2033051 L7.68180932,31.2033051 L7.68180932,29.7955667 Z M14.3968833,29.7955667 L12.2306652,29.7955667 L12.2306652,31.2033051 L14.3968833,31.2033051 L14.3968833,29.7955667 Z M21.1119574,29.7955667 L18.9457392,29.7955667 L18.9457392,31.2033051 L21.1119574,31.2033051 L21.1119574,29.7955667 Z M27.2673463,6.19772648 L26.6439036,6.19772648 L26.6442627,30.9646185 L27.2677054,30.9646185 C27.6439872,30.9646185 27.9556859,30.6839676 28.0050226,30.3212945 L28.0118246,30.2204993 L28.0114655,6.94184567 C28.0114655,6.53171499 27.6774678,6.19772648 27.2673463,6.19772648 Z M8.48625753,21.9588621 C8.93049682,21.9588621 9.29070575,22.319071 9.29070575,22.7633103 L9.29070575,22.7633103 L9.29070575,25.7799451 C9.29070575,26.2241844 8.93049682,26.5843933 8.48625753,26.5843933 L8.48625753,26.5843933 L4.71114295,26.5843933 C4.26690366,26.5843933 3.90669473,26.2241844 3.90669473,25.7799451 L3.90669473,25.7799451 L3.90669473,22.7633103 C3.90669473,22.319071 4.26690366,21.9588621 4.71114295,21.9588621 L4.71114295,21.9588621 Z M15.2013316,21.9588621 C15.6455708,21.9588621 16.0057798,22.319071 16.0057798,22.7633103 L16.0057798,22.7633103 L16.0057798,25.7799451 C16.0057798,26.2241844 15.6455708,26.5843933 15.2013316,26.5843933 L15.2013316,26.5843933 L11.426217,26.5843933 C10.9819777,26.5843933 10.6217688,26.2241844 10.6217688,25.7799451 L10.6217688,25.7799451 L10.6217688,22.7633103 C10.6217688,22.319071 10.9819777,21.9588621 11.426217,21.9588621 L11.426217,21.9588621 Z M21.9164056,21.9588621 C22.3610034,21.9588621 22.7208538,22.319071 22.7208538,22.7633103 L22.7208538,22.7633103 L22.7208538,25.7799451 C22.7208538,26.2241844 22.3606449,26.5843933 21.9164056,26.5843933 L21.9164056,26.5843933 L18.141291,26.5843933 C17.6970517,26.5843933 17.3368428,26.2241844 17.3368428,25.7799451 L17.3368428,25.7799451 L17.3368428,22.7633103 C17.3368428,22.319071 17.6970517,21.9588621 18.141291,21.9588621 L18.141291,21.9588621 Z M7.68180932,23.5677585 L5.51559116,23.5677585 L5.51559116,24.9754969 L7.68180932,24.9754969 L7.68180932,23.5677585 Z M14.3968833,23.5677585 L12.2306652,23.5677585 L12.2306652,24.9754969 L14.3968833,24.9754969 L14.3968833,23.5677585 Z M21.1119574,23.5677585 L18.9457392,23.5677585 L18.9457392,24.9754969 L21.1119574,24.9754969 L21.1119574,23.5677585 Z M8.48625753,15.7319732 C8.93049682,15.7319732 9.29070575,16.0921821 9.29070575,16.5364214 L9.29070575,16.5364214 L9.29070575,19.5530562 C9.29070575,19.9972955 8.93049682,20.3575044 8.48625753,20.3575044 L8.48625753,20.3575044 L4.71114295,20.3575044 C4.26690366,20.3575044 3.90669473,19.9972955 3.90669473,19.5530562 L3.90669473,19.5530562 L3.90669473,16.5364214 C3.90669473,16.0921821 4.26690366,15.7319732 4.71114295,15.7319732 L4.71114295,15.7319732 Z M15.2013316,15.7319732 C15.6455708,15.7319732 16.0057798,16.0921821 16.0057798,16.5364214 L16.0057798,16.5364214 L16.0057798,19.5530562 C16.0057798,19.9972955 15.6455708,20.3575044 15.2013316,20.3575044 L15.2013316,20.3575044 L11.426217,20.3575044 C10.9819777,20.3575044 10.6217688,19.9972955 10.6217688,19.5530562 L10.6217688,19.5530562 L10.6217688,16.5364214 C10.6217688,16.0921821 10.9819777,15.7319732 11.426217,15.7319732 L11.426217,15.7319732 Z M21.9164056,15.7319732 C22.3610034,15.7319732 22.7208538,16.0921821 22.7208538,16.5364214 L22.7208538,16.5364214 L22.7208538,19.5530562 C22.7208538,19.9972955 22.3606449,20.3575044 21.9164056,20.3575044 L21.9164056,20.3575044 L18.141291,20.3575044 C17.6970517,20.3575044 17.3368428,19.9972955 17.3368428,19.5530562 L17.3368428,19.5530562 L17.3368428,16.5364214 C17.3368428,16.0921821 17.6970517,15.7319732 18.141291,15.7319732 L18.141291,15.7319732 Z M7.68180932,17.3408696 L5.51559116,17.3408696 L5.51559116,18.748608 L7.68180932,18.748608 L7.68180932,17.3408696 Z M14.3968833,17.3408696 L12.2306652,17.3408696 L12.2306652,18.748608 L14.3968833,18.748608 L14.3968833,17.3408696 Z M21.1119574,17.3408696 L18.9457392,17.3408696 L18.9457392,18.748608 L21.1119574,18.748608 L21.1119574,17.3408696 Z M22.0019069,4.19572608 C22.411643,4.19572608 22.7503902,4.50234415 22.8000807,4.89920441 L22.8063551,5.0001743 L22.8063551,13.3261674 C22.8063551,13.7362344 22.4994316,14.0747016 22.1028063,14.124347 L22.0019069,14.1306156 L4.62582547,14.1306156 C4.21575843,14.1306156 3.87729123,13.823692 3.82764579,13.4270667 L3.82137725,13.3261674 L3.82137725,5.0001743 C3.82137725,4.59010726 4.12830084,4.25164006 4.52492608,4.20199462 L4.62582547,4.19572608 L22.0019069,4.19572608 Z M21.1974587,5.80462251 L5.43027368,5.80462251 L5.43027368,12.5217191 L21.1974587,12.5217191 L21.1974587,5.80462251 Z M18.791469,7.49258471 C19.2357083,7.49258471 19.5959172,7.85279364 19.5959172,8.29703293 C19.5959172,8.70709996 19.2889937,9.04556716 18.8923684,9.09521261 L18.791469,9.10148114 L8.00726608,9.10148114 C7.56302679,9.10148114 7.20281787,8.74127222 7.20281787,8.29703293 C7.20281787,7.88696589 7.50974145,7.54849869 7.90636669,7.49885325 L8.00726608,7.49258471 L18.791469,7.49258471 Z" id="path-1"></path>
        <path d="M46.8828387,18.1097144 C47.4991287,18.1097144 48,18.6109413 48,19.2268757 L48,19.2268757 L48,36.067285 C48,36.6832194 47.498773,37.1844464 46.8828387,37.1844464 L46.8828387,37.1844464 L34.8466791,37.1844464 L34.8466791,34.9501237 L45.7656773,34.9501237 L45.7656773,20.3440371 L2.23468748,20.3440371 L2.23468748,34.9501237 L14.2097451,34.9501237 L14.2097451,28.2856407 L9.81907306,28.2856407 C9.20207169,28.2856407 8.70191171,27.7854807 8.70191171,27.1684793 C8.70191171,26.551478 9.20207169,26.051318 9.81907306,26.051318 L9.81907306,26.051318 L38.4402908,26.051318 C39.0572921,26.051318 39.5574521,26.551478 39.5574521,27.1684793 C39.5574521,27.7854807 39.0572921,28.2856407 38.4402908,28.2856407 L38.4402908,28.2856407 L34.0496187,28.2856407 L34.0496187,45.0868354 C34.0496187,46.3956013 32.9848955,47.4604156 31.6760384,47.4604156 L31.6760384,47.4604156 L16.5838726,47.4604156 C15.2747419,47.4604156 14.2102923,46.3956925 14.2102923,45.0868354 L14.2102923,45.0868354 L14.2102923,37.1844464 L1.11716135,37.1844464 C0.501226978,37.1844464 0,36.6832194 0,36.067285 L0,36.067285 L0,19.2268757 C0,18.6109413 0.501226978,18.1097144 1.11716135,18.1097144 L1.11716135,18.1097144 Z M28.6057142,28.2854583 L26.3909989,28.2854583 L26.3909989,45.2252722 L28.6057142,45.2252722 L28.6057142,28.2854583 Z M31.8147215,28.286124 L30.2016317,28.286124 L30.2016317,45.2259379 L31.6757375,45.2259379 C31.7526811,45.2259379 31.8150224,45.1632437 31.8150224,45.086653 L31.8150224,45.086653 L31.8147215,28.286124 Z M24.7949629,28.2854583 L16.4440405,28.2851459 L16.4440405,45.0859872 C16.4440405,45.1629309 16.5067347,45.2252722 16.5833254,45.2252722 L16.5833254,45.2252722 L24.7949629,45.2252722 L24.7949629,28.2854583 Z M21.8888842,36.6385421 C22.3295474,36.6385421 22.6868566,36.9958513 22.6868566,37.4365145 L22.6868566,37.4365145 L22.6868566,43.0137487 C22.6868566,43.4544118 22.3295474,43.8117211 21.8888842,43.8117211 L21.8888842,43.8117211 L18.1427003,43.8117211 C17.7020371,43.8117211 17.3447279,43.4544118 17.3447279,43.0137487 L17.3447279,43.0137487 L17.3447279,37.4365145 C17.3447279,36.9958513 17.7020371,36.6385421 18.1427003,36.6385421 L18.1427003,36.6385421 Z M21.0909119,38.2348516 L18.9406727,38.2348516 L18.9406727,42.2161411 L21.0909119,42.2161411 L21.0909119,38.2348516 Z M23.0536503,15.9310217 C23.2577762,16.2569775 23.6154411,16.4546923 24.0001824,16.4546923 C24.3849236,16.4546923 24.7422238,16.2566218 24.9467144,15.9310217 L30.0363191,7.81304343 C30.252556,7.46856559 30.2643113,7.03430445 30.0676681,6.67873708 C29.8710294,6.3232153 29.4966208,6.10234566 29.0901291,6.10234566 L27.7167958,6.10234566 L27.7164396,1.11716135 C27.7164396,0.500159974 27.2166353,0 26.5992782,0 L21.3999637,0 C20.7829624,0 20.2828024,0.500159974 20.2828024,1.11716135 L20.2828024,6.10234566 L18.9094691,6.10234566 C18.5030048,6.10234566 18.1285961,6.32285963 17.9319301,6.67873708 C17.7349267,7.03461452 17.7470468,7.46887566 17.9629225,7.81304343 L23.0536503,15.9310217 Z M21.399978,8.33678691 C22.0169793,8.33678691 22.5171393,7.83662693 22.5171393,7.21962556 L22.5171393,2.23444125 L25.4828607,2.23444125 L25.4828607,7.21962556 C25.4828607,7.83662693 25.9830207,8.33678691 26.600022,8.33678691 L27.0709717,8.33678691 L25.5985986,10.6851057 L24.0001915,13.2343311 L20.9290466,8.33642212 L21.3999962,8.33642212 L21.399978,8.33678691 Z" id="path-3"></path>
        <path d="M34.506049,22.6089386 C35.826034,22.6089386 36.9003441,23.6827888 36.9003441,25.0028657 L36.9003441,25.0028657 L36.9003441,45.6060729 C36.9003441,46.9260578 35.8264939,48 34.5064169,48 L34.5064169,48 L2.39392711,48 C1.07357426,48 0,46.9261498 0,45.6060729 L0,45.6060729 L0,25.0028657 C0,23.6828808 1.0738502,22.6089386 2.39392711,22.6089386 L2.39392711,22.6089386 Z M34.646226,34.185614 L2.25319985,34.185614 L2.25319985,45.6056774 C2.25319985,45.6832806 2.31643146,45.7461563 2.39367877,45.7461563 L2.39367877,45.7461563 L34.5061042,45.7461563 C34.5837075,45.7461563 34.6465837,45.6829247 34.646226,45.6056774 L34.646226,45.6056774 L34.646226,34.185614 Z M31.3966204,38.1661996 C31.8414197,38.1661996 32.2014331,38.5265718 32.2014331,38.9710124 L32.2014331,38.9710124 L32.2014331,43.172595 C32.2014331,43.6170356 31.841061,43.9774078 31.3966204,43.9774078 L31.3966204,43.9774078 L25.560302,43.9774078 C25.1158614,43.9774078 24.7554893,43.6170356 24.7554893,43.172595 L24.7554893,43.172595 L24.7554893,38.9710124 C24.7554893,38.5265718 25.1158614,38.1661996 25.560302,38.1661996 L25.560302,38.1661996 Z M30.5918076,39.7754572 L26.3651148,39.7754572 L26.3651148,42.3674143 L30.5918076,42.3674143 L30.5918076,39.7754572 Z M34.6462244,29.1778665 L2.25319985,29.1778665 L2.25319985,32.5767518 L34.6462244,32.5767518 L34.6462244,29.1778665 Z M34.5061686,24.8624144 L2.39410187,24.8624144 C2.3164986,24.8624144 2.25362295,24.925646 2.25362295,25.0028933 L2.25362295,25.0028933 L2.25362295,27.5682685 L34.6466475,27.5682685 L34.6466475,25.0028933 C34.6466475,24.92529 34.5834159,24.8624144 34.5061686,24.8624144 L34.5061686,24.8624144 Z M25.3080139,15.0587921 C25.7481499,15.4985419 25.7481499,16.2120935 25.3080139,16.6518616 C25.119534,16.8403336 24.8806423,16.9480319 24.6345489,16.9749565 L24.5111021,16.9816876 C24.2224273,16.9816876 23.933918,16.8717456 23.7143926,16.6518616 C20.7689618,13.7067067 15.9767846,13.7067067 13.0319976,16.6518616 C12.59188,17.0919976 11.8786963,17.0919976 11.4385603,16.6518616 C10.9984243,16.2121119 10.9984243,15.4985602 11.4385603,15.0587921 C15.2630306,11.2348737 21.4840955,11.2348737 25.3080139,15.0587921 Z M29.6080136,10.7584245 C30.0481496,11.1985421 30.0481496,11.9117258 29.6080136,12.3518618 C29.3877617,12.5717459 29.0996111,12.6816879 28.8111018,12.6816879 C28.5233468,12.6816879 28.2348375,12.5713872 28.0153121,12.3518618 C22.6989489,7.03540659 14.0484532,7.03540659 8.73199792,12.3518618 C8.2918803,12.7919979 7.57869661,12.7923566 7.13856059,12.3518618 C6.69842458,11.9117442 6.69842458,11.1985605 7.13856059,10.7584245 C13.3333195,4.56384953 23.4134386,4.56384953 29.6080136,10.7584245 Z M2.81410377,6.43413326 C11.3929481,-2.14471109 25.3525408,-2.14471109 33.9313851,6.43413326 C34.3715211,6.87425088 34.3715211,7.58743457 33.9313851,8.02757059 C33.7111331,8.24745464 33.4229826,8.35739666 33.1344733,8.35739666 C32.8459548,8.35739666 32.5578042,8.24745464 32.3375615,8.02757059 C24.6380326,0.327213882 12.1076954,0.327213882 4.40733874,8.02757059 L4.40733874,8.02757059 C3.96742348,8.4677066 3.25387187,8.4677066 2.81410377,8.02757059 C2.37396776,7.58745297 2.37396776,6.87426927 2.81410377,6.43413326 Z M15.625969,19.1836554 C15.185833,19.6234235 15.185833,20.3369751 15.625969,20.7767248 C16.066105,21.2168608 16.7792887,21.2168608 17.2194063,20.7767248 C17.8553556,20.1407756 18.8893699,20.1407756 19.524942,20.7767248 C19.7451848,20.9969676 20.0336941,21.1065509 20.3218538,21.1065509 C20.6100136,21.1065509 20.8988724,20.9966089 21.1187656,20.7767248 C21.5589017,20.3369567 21.5589017,19.6234051 21.1187656,19.1836554 C19.6047059,17.6688598 17.140691,17.6688598 15.6258954,19.1836554 L15.625969,19.1836554 Z" id="path-5"></path>
    </defs>
    <g id="UI-design" stroke="none" stroke-width="1" fill="none" fill-rule="evenodd">
        <g id="Checkout-\-card" transform="translate(-189.000000, -333.000000)">
            <g id="Group-28" transform="translate(189.000000, 333.000000)">
                <g id="color-/-black" transform="translate(15.000000, 6.000000)">
                    <mask id="mask-2" fill="white">
                        <use xlink:href="#path-1"></use>
                    </mask>
                    <use id="Mask" fill="#000000" fill-rule="nonzero" xlink:href="#path-1"></use>
                    <g id="Group" mask="url(#mask-2)">
                        <g transform="translate(-15.000000, -6.000000)" id="color-/-black">
                            <rect fill="#000000" x="0" y="0" width="60" height="60"></rect>
                        </g>
                    </g>
                </g>
                <g id="Group" transform="translate(85.000000, 0.000000)">
                    <g id="color-/-black" transform="translate(6.000000, 6.000000)">
                        <mask id="mask-4" fill="white">
                            <use xlink:href="#path-3"></use>
                        </mask>
                        <use id="Mask" fill="#000000" fill-rule="nonzero" xlink:href="#path-3"></use>
                        <g id="Group" mask="url(#mask-4)">
                            <g transform="translate(-6.000000, -6.000000)" id="color-/-black">
                                <rect fill="#000000" x="0" y="0" width="60" height="60"></rect>
                            </g>
                        </g>
                    </g>
                </g>
                <g id="Group" transform="translate(170.000000, 0.000000)">
                    <g id="color-/-black" transform="translate(12.000000, 6.000000)">
                        <mask id="mask-6" fill="white">
                            <use xlink:href="#path-5"></use>
                        </mask>
                        <use id="Mask" fill="#000000" fill-rule="nonzero" xlink:href="#path-5"></use>
                        <g id="Group" mask="url(#mask-6)">
                            <g transform="translate(-12.000000, -6.000000)" id="color-/-black">
                                <rect fill="#000000" x="0" y="0" width="60" height="60"></rect>
                            </g>
                        </g>
                    </g>
                </g>
            </g>
        </g>
    </g>
</svg>