<?xml version="1.0" encoding="UTF-8"?>
<svg width="220px" height="179px" viewBox="0 0 220 179" version="1.1" xmlns="http://www.w3.org/2000/svg" xmlns:xlink="http://www.w3.org/1999/xlink">
    <title>Group</title>
    <g id="Symbols" stroke="none" stroke-width="1" fill="none" fill-rule="evenodd" opacity="0.452768235">
        <g id="elements-/-left-bill-action-screen-expand-view-/-empty" transform="translate(-146.000000, -219.000000)" fill="#939EAA" fill-rule="nonzero">
            <g id="Group" transform="translate(146.000000, 219.000000)">
                <g id="noun-shopping-bag-4615837" transform="translate(44.744802, 0.000000)">
                    <path d="M11.3154884,34.5607348 L29.7068861,34.5607348 L29.7068861,44.5461076 C29.7068861,46.286007 31.1181416,47.6972063 32.8579847,47.6972063 C34.5978279,47.6972063 36.0090834,46.2859507 36.0090834,44.5461076 L36.0090834,34.5607348 L69.0169757,34.5607348 L69.0169757,44.5461076 C69.0169757,46.286007 70.4282312,47.6972063 72.1680744,47.6972063 C73.9079738,47.6972063 75.3191731,46.2859507 75.3191731,44.5461076 L75.3191731,34.5607348 L93.7083198,34.5607348 C95.7515677,34.5607348 97.444112,36.1049954 97.6309438,38.1383953 L100.595211,70.3950211 C99.1938313,70.2488392 97.7682539,70.1730007 96.3273417,70.1730007 C73.8065106,70.1730007 55.5479211,88.4293393 55.5479211,110.952421 C55.5479211,116.492097 56.6547308,121.772066 58.6551256,126.58608 L7.71813177,126.587179 C5.46934073,126.587179 3.53383064,125.733155 2.0191986,124.072406 C0.504622838,122.411657 -0.170222689,120.405832 0.0363896651,118.166945 L7.39176697,38.1415877 C7.57861567,36.1071187 9.27015831,34.5616763 11.314391,34.5616763 L11.3154884,34.5607348 Z M29.7046351,34.0419389 L29.7046351,22.8067062 C29.7046351,16.5318021 32.269971,10.8286483 36.4015991,6.69696398 C40.5344089,2.56415414 46.2364372,0 52.5113413,0 C58.7862455,0 64.4893992,2.56533591 68.6210836,6.69696398 C72.7538934,10.8297738 75.3180476,16.5318021 75.3180476,22.8067062 L75.3180476,34.0419389 L69.0158502,34.0419389 L69.0158502,22.8067062 C69.0158502,18.2718141 67.1583368,14.1457572 64.1655387,11.1527903 C61.1736972,8.16094883 57.0465149,6.30247873 52.5116227,6.30247873 C47.9767305,6.30247873 43.8506736,8.15999217 40.8577067,11.1527903 C37.8658653,14.1446317 36.0073952,18.2718141 36.0073952,22.8067062 L36.0073952,34.0419389 L29.7046351,34.0419389 Z" id="Shape"></path>
                    <path d="M96.3309995,77.2524241 C114.943557,77.2524241 130.029971,92.3410629 130.03107,110.952494 C130.03107,129.565052 114.943557,144.652565 96.3309995,144.652565 C77.7184425,144.652565 62.6309291,129.565052 62.6309291,110.952494 C62.6309291,92.3399374 77.719568,77.2524241 96.3309995,77.2524241 Z M107.959803,99.7524785 L92.2819686,114.764302 L84.6421229,107.747417 C83.205572,106.426285 80.9699211,106.519701 79.6488738,107.954052 C78.3299368,109.3917 78.4222554,111.625128 79.8588035,112.947301 L79.8585672,112.947431 L89.9396069,122.206298 C91.3530571,123.506551 93.5392145,123.437306 94.8670147,122.066711 L112.85633,104.84245 C114.261001,103.489438 114.306049,101.256067 112.953052,99.8492006 C111.600041,98.4445292 109.366669,98.3994813 107.959803,99.7524785 Z" id="Combined-Shape"></path>
                </g>
                <g id="Empty!-Add-Items-to" transform="translate(0.000000, 163.408652)">
                    <polygon id="Path" points="0 12.1696339 0 0.561152191 7.55004766 0.561152191 7.55004766 2.32396362 2.10290367 2.32396362 2.10290367 5.47548502 7.15894159 5.47548502 7.15894159 7.23829645 2.10290367 7.23829645 2.10290367 10.4068225 7.5953933 10.4068225 7.5953933 12.1696339"></polygon>
                    <path d="M9.6076057,12.1696339 L9.6076057,3.46327261 L11.5688043,3.46327261 L11.5688043,4.94267385 L11.6708319,4.94267385 C11.8522145,4.4438719 12.1526293,4.05371053 12.5720764,3.77218973 C12.9915235,3.49066893 13.4922148,3.34990854 14.0741504,3.34990854 C14.6636436,3.34990854 15.1615009,3.49255834 15.5677222,3.77785793 C15.9739434,4.06315753 16.2601877,4.4514295 16.4264551,4.94267385 L16.5171463,4.94267385 C16.7098653,4.45898711 17.035787,4.07260454 17.4949115,3.78352614 C17.954036,3.49444774 18.4991283,3.34990854 19.1301883,3.34990854 C19.9312945,3.34990854 20.5850274,3.60308831 21.0913869,4.10944787 C21.5977465,4.61580742 21.8509262,5.35456333 21.8509262,6.32571561 L21.8509262,12.1696339 L19.7933682,12.1696339 L19.7933682,6.64313503 C19.7933682,6.10276626 19.6497737,5.70693668 19.3625847,5.4556463 C19.0753957,5.20435593 18.7239671,5.07871074 18.3082988,5.07871074 C17.8132756,5.07871074 17.4268931,5.23269695 17.1491511,5.54066936 C16.8714091,5.84864178 16.7325381,6.24825016 16.7325381,6.7394945 L16.7325381,12.1696339 L14.7203257,12.1696339 L14.7203257,6.55811197 C14.7203257,6.10843446 14.5852335,5.74944821 14.3150491,5.48115322 C14.0448647,5.21285823 13.6924913,5.07871074 13.257929,5.07871074 C12.9631824,5.07871074 12.6948875,5.15334209 12.4530441,5.3026048 C12.2112007,5.4518675 12.0184818,5.66159105 11.8748873,5.93177544 C11.7312928,6.20195982 11.6594955,6.51654514 11.6594955,6.87553139 L11.6594955,12.1696339 L9.6076057,12.1696339 Z" id="Path"></path>
                    <path d="M23.9368253,15.4345194 L23.9368253,3.46327261 L25.9547059,3.46327261 L25.9547059,4.90299642 L26.0737382,4.90299642 C26.1795447,4.69138347 26.3288074,4.46560001 26.5215263,4.22564605 C26.7142452,3.98569208 26.9749826,3.77974734 27.3037384,3.60781182 C27.6324943,3.4358763 28.0519414,3.34990854 28.5620797,3.34990854 C29.2347066,3.34990854 29.8421491,3.52089936 30.3844073,3.86288099 C30.9266655,4.20486263 31.357449,4.70933278 31.6767578,5.37629145 C31.9960666,6.04325011 32.155721,6.86041618 32.155721,7.82778966 C32.155721,8.78382672 31.9989007,9.59626929 31.6852601,10.2651174 C31.3716195,10.9339654 30.9446148,11.4441038 30.404246,11.7955324 C29.8638772,12.1469611 29.2517112,12.3226754 28.5677479,12.3226754 C28.068946,12.3226754 27.6551671,12.2395417 27.3264113,12.0732744 C26.9976554,11.9070071 26.7340839,11.7057859 26.5356968,11.4696107 C26.3373097,11.2334355 26.1833235,11.0095415 26.0737382,10.7979285 L25.9887151,10.7979285 L25.9887151,15.4345194 L23.9368253,15.4345194 Z M25.9490377,7.81645325 C25.9490377,8.37949484 26.0293372,8.87262859 26.1899364,9.29585448 C26.3505355,9.71908038 26.5829318,10.0487809 26.8871254,10.2849561 C27.1913191,10.5211312 27.560697,10.6392188 27.9952593,10.6392188 C28.4487156,10.6392188 28.8284853,10.5173524 29.1345683,10.2736197 C29.4406513,10.0298869 29.672103,9.69546286 29.8289233,9.27034756 C29.9857436,8.84523227 30.0641538,8.36060083 30.0641538,7.81645325 C30.0641538,7.27608447 29.9866883,6.79617654 29.8317574,6.37672945 C29.6768265,5.95728235 29.4463195,5.62852652 29.1402365,5.39046196 C28.8341535,5.15239739 28.4524944,5.03336511 27.9952593,5.03336511 C27.5569182,5.03336511 27.1847062,5.14861859 26.8786231,5.37912555 C26.5725401,5.60963251 26.3410885,5.93272014 26.1842682,6.34838843 C26.0274478,6.76405672 25.9490377,7.25341166 25.9490377,7.81645325 Z" id="Shape"></path>
                    <path d="M38.2547085,3.46327261 L38.2547085,5.05036972 L33.2496844,5.05036972 L33.2496844,3.46327261 L38.2547085,3.46327261 Z M34.4853528,1.37737356 L36.5372427,1.37737356 L36.5372427,9.55092366 C36.5372427,9.82677625 36.5797542,10.0374445 36.6647773,10.1829284 C36.7498003,10.3284123 36.8622197,10.4276059 37.0020354,10.4805091 C37.1418511,10.5334123 37.296782,10.559864 37.4668281,10.559864 C37.5953074,10.559864 37.713395,10.550417 37.8210909,10.5315229 C37.9287867,10.5126289 38.0109757,10.4956243 38.0676577,10.4805091 L38.4134182,12.0846108 C38.3038329,12.1223989 38.1479573,12.1639657 37.9457914,12.2093113 C37.7436254,12.2546569 37.4970585,12.2811086 37.2060907,12.2886662 C36.6921736,12.3037814 36.2292703,12.2253712 35.8173808,12.0534357 C35.4054913,11.8815002 35.0795696,11.6141499 34.8396156,11.2513848 C34.5996616,10.8886198 34.481574,10.4351635 34.4853528,9.8910159 L34.4853528,1.37737356 Z" id="Shape"></path>
                    <path d="M41.2475202,15.4175148 C40.9678888,15.4175148 40.7099855,15.3957866 40.4738103,15.3523304 C40.2376352,15.3088742 40.0496397,15.2569156 39.909824,15.1964548 L40.3859532,13.6036895 C40.8318519,13.7321688 41.206898,13.7538969 41.5110916,13.6688738 C41.8152853,13.5838508 42.0656309,13.3013853 42.2621287,12.8214773 L42.437843,12.3510164 L39.2806534,3.46327261 L41.4572437,3.46327261 L43.4637879,10.0383892 L43.5544792,10.0383892 L45.5666916,3.46327261 L47.7602865,3.47460902 L44.2630047,13.2239198 C44.1005162,13.6773761 43.8851244,14.0684822 43.6168294,14.397238 C43.3485344,14.7259939 43.0207233,14.9782289 42.633396,15.1539433 C42.2460688,15.3296576 41.7841101,15.4175148 41.2475202,15.4175148 Z" id="Path"></path>
                    <path d="M51.6883518,0.561152191 L51.5013011,8.75737511 L49.6761394,8.75737511 L49.4947569,0.561152191 L51.6883518,0.561152191 Z M50.5887203,12.2943344 C50.2448492,12.2943344 49.9510473,12.1734127 49.7073146,11.9315693 C49.4635818,11.689726 49.3417154,11.3949793 49.3417154,11.0473295 C49.3417154,10.7072373 49.4635818,10.4162695 49.7073146,10.1744261 C49.9510473,9.93258273 50.2448492,9.81166104 50.5887203,9.81166104 C50.9250337,9.81166104 51.2169462,9.93258273 51.4644578,10.1744261 C51.7119694,10.4162695 51.8357251,10.7072373 51.8357251,11.0473295 C51.8357251,11.2778365 51.7780984,11.48756 51.6628449,11.6765001 C51.5475914,11.8654403 51.3964393,12.0156477 51.2093886,12.1271224 C51.0223379,12.238597 50.8154484,12.2943344 50.5887203,12.2943344 Z" id="Shape"></path>
                    <path d="M59.6521784,12.1696339 L57.4075696,12.1696339 L61.4943447,0.561152191 L64.0903821,0.561152191 L68.1828253,12.1696339 L65.9382166,12.1696339 L62.837709,2.94179785 L62.7470178,2.94179785 L59.6521784,12.1696339 Z M59.725865,7.61806611 L65.8475253,7.61806611 L65.8475253,9.30719089 L59.725865,9.30719089 L59.725865,7.61806611 Z" id="Shape"></path>
                    <path d="M72.5813516,12.3226754 C71.8973883,12.3226754 71.2852223,12.1469611 70.7448535,11.7955324 C70.2044848,11.4441038 69.7774801,10.9339654 69.4638394,10.2651174 C69.1501988,9.59626929 68.9933785,8.78382672 68.9933785,7.82778966 C68.9933785,6.86041618 69.1530329,6.04325011 69.4723417,5.37629145 C69.7916506,4.70933278 70.2233788,4.20486263 70.7675263,3.86288099 C71.3116739,3.52089936 71.9181717,3.34990854 72.5870198,3.34990854 C73.0971582,3.34990854 73.5166053,3.4358763 73.8453611,3.60781182 C74.1741169,3.77974734 74.4348543,3.98569208 74.6275732,4.22564605 C74.8202922,4.46560001 74.9695549,4.69138347 75.0753613,4.90299642 L75.1603844,4.90299642 L75.1603844,0.561152191 L77.2179424,0.561152191 L77.2179424,12.1696339 L75.2000618,12.1696339 L75.2000618,10.7979285 L75.0753613,10.7979285 C74.9695549,11.0095415 74.8165134,11.2334355 74.6162368,11.4696107 C74.4159603,11.7057859 74.1514441,11.9070071 73.8226883,12.0732744 C73.4939324,12.2395417 73.0801536,12.3226754 72.5813516,12.3226754 Z M73.1538402,10.6392188 C73.5884025,10.6392188 73.9587252,10.5211312 74.2648082,10.2849561 C74.5708912,10.0487809 74.8032876,9.71908038 74.9619973,9.29585448 C75.120707,8.87262859 75.2000618,8.37949484 75.2000618,7.81645325 C75.2000618,7.25341166 75.1216517,6.76405672 74.9648314,6.34838843 C74.8080111,5.93272014 74.5775041,5.60963251 74.2733105,5.37912555 C73.9691169,5.14861859 73.5959601,5.03336511 73.1538402,5.03336511 C72.6966051,5.03336511 72.314946,5.15239739 72.008863,5.39046196 C71.70278,5.62852652 71.472273,5.95728235 71.3173421,6.37672945 C71.1624112,6.79617654 71.0849458,7.27608447 71.0849458,7.81645325 C71.0849458,8.36060083 71.1633559,8.84523227 71.3201762,9.27034756 C71.4769965,9.69546286 71.7093929,10.0298869 72.0173653,10.2736197 C72.3253377,10.5173524 72.7041627,10.6392188 73.1538402,10.6392188 Z" id="Shape"></path>
                    <path d="M82.6424136,12.3226754 C81.9584503,12.3226754 81.3462843,12.1469611 80.8059155,11.7955324 C80.2655468,11.4441038 79.8385421,10.9339654 79.5249015,10.2651174 C79.2112608,9.59626929 79.0544405,8.78382672 79.0544405,7.82778966 C79.0544405,6.86041618 79.2140949,6.04325011 79.5334038,5.37629145 C79.8527126,4.70933278 80.2844408,4.20486263 80.8285884,3.86288099 C81.3727359,3.52089936 81.9792338,3.34990854 82.6480818,3.34990854 C83.1582202,3.34990854 83.5776673,3.4358763 83.9064231,3.60781182 C84.2351789,3.77974734 84.4959163,3.98569208 84.6886353,4.22564605 C84.8813542,4.46560001 85.0306169,4.69138347 85.1364234,4.90299642 L85.2214464,4.90299642 L85.2214464,0.561152191 L87.2790045,0.561152191 L87.2790045,12.1696339 L85.2611239,12.1696339 L85.2611239,10.7979285 L85.1364234,10.7979285 C85.0306169,11.0095415 84.8775754,11.2334355 84.6772988,11.4696107 C84.4770223,11.7057859 84.2125061,11.9070071 83.8837503,12.0732744 C83.5549945,12.2395417 83.1412156,12.3226754 82.6424136,12.3226754 Z M83.2149022,10.6392188 C83.6494645,10.6392188 84.0197872,10.5211312 84.3258702,10.2849561 C84.6319532,10.0487809 84.8643496,9.71908038 85.0230593,9.29585448 C85.181769,8.87262859 85.2611239,8.37949484 85.2611239,7.81645325 C85.2611239,7.25341166 85.1827137,6.76405672 85.0258934,6.34838843 C84.8690731,5.93272014 84.6385661,5.60963251 84.3343725,5.37912555 C84.0301789,5.14861859 83.6570221,5.03336511 83.2149022,5.03336511 C82.7576671,5.03336511 82.376008,5.15239739 82.069925,5.39046196 C81.763842,5.62852652 81.5333351,5.95728235 81.3784041,6.37672945 C81.2234732,6.79617654 81.1460078,7.27608447 81.1460078,7.81645325 C81.1460078,8.36060083 81.2244179,8.84523227 81.3812382,9.27034756 C81.5380586,9.69546286 81.7704549,10.0298869 82.0784273,10.2736197 C82.3863997,10.5173524 82.7652247,10.6392188 83.2149022,10.6392188 Z" id="Shape"></path>
                    <polygon id="Path" points="95.6282689 0.561152191 95.6282689 12.1696339 93.5253652 12.1696339 93.5253652 0.561152191"></polygon>
                    <path d="M102.169376,3.46327261 L102.169376,5.05036972 L97.1643522,5.05036972 L97.1643522,3.46327261 L102.169376,3.46327261 Z M98.4000206,1.37737356 L100.45191,1.37737356 L100.45191,9.55092366 C100.45191,9.82677625 100.494422,10.0374445 100.579445,10.1829284 C100.664468,10.3284123 100.776887,10.4276059 100.916703,10.4805091 C101.056519,10.5334123 101.21145,10.559864 101.381496,10.559864 C101.509975,10.559864 101.628063,10.550417 101.735759,10.5315229 C101.843455,10.5126289 101.925643,10.4956243 101.982326,10.4805091 L102.328086,12.0846108 C102.218501,12.1223989 102.062625,12.1639657 101.860459,12.2093113 C101.658293,12.2546569 101.411726,12.2811086 101.120759,12.2886662 C100.606841,12.3037814 100.143938,12.2253712 99.7320485,12.0534357 C99.3201591,11.8815002 98.9942373,11.6141499 98.7542834,11.2513848 C98.5143294,10.8886198 98.3962418,10.4351635 98.4000206,9.8910159 L98.4000206,1.37737356 Z" id="Shape"></path>
                    <path d="M107.650529,12.33968 C106.777626,12.33968 106.0247,12.1573528 105.39175,11.7926983 C104.758801,11.4280439 104.27228,10.9103479 103.932188,10.2396104 C103.592095,9.56887297 103.422049,8.77815852 103.422049,7.86746709 C103.422049,6.97189086 103.59304,6.18495521 103.935022,5.50666014 C104.277003,4.82836507 104.755967,4.2993327 105.371911,3.91956303 C105.987856,3.53979337 106.711497,3.34990854 107.542834,3.34990854 C108.079424,3.34990854 108.586728,3.4358763 109.064746,3.60781182 C109.542765,3.77974734 109.965991,4.04520822 110.334424,4.40419447 C110.702857,4.76318072 110.99288,5.21947114 111.204493,5.77306573 C111.416106,6.32666031 111.521913,6.98511667 111.521913,7.7484348 L111.521913,8.37760544 L104.385644,8.37760544 L104.385644,6.99456368 L109.555046,6.99456368 C109.551267,6.6015682 109.466244,6.25108426 109.299977,5.94311184 C109.133709,5.63513943 108.902258,5.39235136 108.605622,5.21474764 C108.308986,5.03714391 107.96417,4.94834205 107.571175,4.94834205 C107.151728,4.94834205 106.783294,5.04942502 106.465875,5.25159096 C106.148455,5.4537569 105.901889,5.71827309 105.726174,6.04513952 C105.55046,6.37200594 105.460713,6.73004749 105.456935,7.11926416 L105.456935,8.32659161 C105.456935,8.83295116 105.549515,9.26656876 105.734677,9.62744441 C105.919838,9.98832006 106.178686,10.2641727 106.51122,10.4550022 C106.843755,10.6458317 107.232972,10.7412465 107.67887,10.7412465 C107.977396,10.7412465 108.24758,10.698735 108.489424,10.6137119 C108.731267,10.5286888 108.940991,10.4030437 109.118594,10.2367763 C109.296198,10.070509 109.430346,9.86456428 109.521037,9.61894211 L111.43689,9.83433386 C111.315968,10.3406934 111.086406,10.7818686 110.748203,11.1578595 C110.41,11.5338503 109.978272,11.8248181 109.453018,12.0307629 C108.927765,12.2367076 108.326935,12.33968 107.650529,12.33968 Z" id="Path"></path>
                    <path d="M113.256383,12.1696339 L113.256383,3.46327261 L115.217582,3.46327261 L115.217582,4.94267385 L115.319609,4.94267385 C115.500992,4.4438719 115.801407,4.05371053 116.220854,3.77218973 C116.640301,3.49066893 117.140992,3.34990854 117.722928,3.34990854 C118.312421,3.34990854 118.810278,3.49255834 119.2165,3.77785793 C119.622721,4.06315753 119.908965,4.4514295 120.075233,4.94267385 L120.165924,4.94267385 C120.358643,4.45898711 120.684564,4.07260454 121.143689,3.78352614 C121.602813,3.49444774 122.147906,3.34990854 122.778966,3.34990854 C123.580072,3.34990854 124.233805,3.60308831 124.740164,4.10944787 C125.246524,4.61580742 125.499704,5.35456333 125.499704,6.32571561 L125.499704,12.1696339 L123.442146,12.1696339 L123.442146,6.64313503 C123.442146,6.10276626 123.298551,5.70693668 123.011362,5.4556463 C122.724173,5.20435593 122.372745,5.07871074 121.957076,5.07871074 C121.462053,5.07871074 121.075671,5.23269695 120.797929,5.54066936 C120.520187,5.84864178 120.381316,6.24825016 120.381316,6.7394945 L120.381316,12.1696339 L118.369103,12.1696339 L118.369103,6.55811197 C118.369103,6.10843446 118.234011,5.74944821 117.963827,5.48115322 C117.693642,5.21285823 117.341269,5.07871074 116.906707,5.07871074 C116.61196,5.07871074 116.343665,5.15334209 116.101822,5.3026048 C115.859978,5.4518675 115.667259,5.66159105 115.523665,5.93177544 C115.38007,6.20195982 115.308273,6.51654514 115.308273,6.87553139 L115.308273,12.1696339 L113.256383,12.1696339 Z" id="Path"></path>
                    <path d="M134.466802,5.76456342 L132.596295,5.96861876 C132.543392,5.77967863 132.451756,5.60207491 132.321387,5.43580759 C132.191018,5.26954027 132.016249,5.13539278 131.797078,5.03336511 C131.577908,4.93133744 131.309613,4.8803236 130.992193,4.8803236 C130.565189,4.8803236 130.207147,4.97290427 129.918069,5.1580656 C129.62899,5.34322693 129.48634,5.58318089 129.490119,5.8779275 C129.48634,6.13110728 129.579866,6.33705202 129.770695,6.49576173 C129.961525,6.65447144 130.278,6.78484013 130.72012,6.8868678 L132.205189,7.20428722 C133.028968,7.38189095 133.642079,7.66341174 134.044521,8.04884961 C134.446964,8.43428748 134.650074,8.93875763 134.653853,9.56226007 C134.650074,10.1101864 134.49042,10.5929285 134.17489,11.0104862 C133.85936,11.4280439 133.421963,11.7539656 132.862701,11.9882514 C132.303438,12.2225371 131.661041,12.33968 130.935511,12.33968 C129.869889,12.33968 129.012101,12.1157859 128.362147,11.6679978 C127.712193,11.2202097 127.324865,10.5957626 127.200165,9.79465643 L129.201041,9.6019375 C129.291732,9.99493297 129.484451,10.291569 129.779198,10.4918455 C130.073944,10.6921221 130.457493,10.7922603 130.929843,10.7922603 C131.417309,10.7922603 131.809359,10.6921221 132.105995,10.4918455 C132.402631,10.291569 132.550949,10.0440574 132.550949,9.7493108 C132.550949,9.49990982 132.455535,9.29396508 132.264705,9.13147657 C132.073876,8.96898805 131.778184,8.84428757 131.377631,8.75737511 L129.892562,8.44562389 C129.057446,8.27179897 128.439612,7.97799706 128.039059,7.56421817 C127.638506,7.15043929 127.440119,6.62613042 127.443898,5.99129158 C127.440119,5.4547016 127.586547,4.98896418 127.883183,4.5940793 C128.179819,4.19919443 128.593598,3.89311141 129.12452,3.67583026 C129.655442,3.45854911 130.268553,3.34990854 130.963852,3.34990854 C131.984129,3.34990854 132.788069,3.56718969 133.375673,4.00175199 C133.963277,4.43631429 134.326987,5.0239181 134.466802,5.76456342 Z" id="Path"></path>
                    <path d="M144.658233,3.46327261 L144.658233,5.05036972 L139.653209,5.05036972 L139.653209,3.46327261 L144.658233,3.46327261 Z M140.888877,1.37737356 L142.940767,1.37737356 L142.940767,9.55092366 C142.940767,9.82677625 142.983279,10.0374445 143.068302,10.1829284 C143.153325,10.3284123 143.265744,10.4276059 143.40556,10.4805091 C143.545376,10.5334123 143.700307,10.559864 143.870353,10.559864 C143.998832,10.559864 144.11692,10.550417 144.224615,10.5315229 C144.332311,10.5126289 144.4145,10.4956243 144.471182,10.4805091 L144.816943,12.0846108 C144.707358,12.1223989 144.551482,12.1639657 144.349316,12.2093113 C144.14715,12.2546569 143.900583,12.2811086 143.609615,12.2886662 C143.095698,12.3037814 142.632795,12.2253712 142.220905,12.0534357 C141.809016,11.8815002 141.483094,11.6141499 141.24314,11.2513848 C141.003186,10.8886198 140.885099,10.4351635 140.888877,9.8910159 L140.888877,1.37737356 Z" id="Shape"></path>
                    <path d="M150.082704,12.33968 C149.232474,12.33968 148.495607,12.1526293 147.872105,11.7785278 C147.248602,11.4044264 146.76586,10.8810622 146.423879,10.2084353 C146.081897,9.53580845 145.910906,8.7498175 145.910906,7.85046247 C145.910906,6.95110745 146.081897,6.1632271 146.423879,5.48682143 C146.76586,4.81041575 147.248602,4.28516219 147.872105,3.91106073 C148.495607,3.53695927 149.232474,3.34990854 150.082704,3.34990854 C150.932935,3.34990854 151.669801,3.53695927 152.293304,3.91106073 C152.916806,4.28516219 153.399548,4.81041575 153.74153,5.48682143 C154.083512,6.1632271 154.254502,6.95110745 154.254502,7.85046247 C154.254502,8.7498175 154.083512,9.53580845 153.74153,10.2084353 C153.399548,10.8810622 152.916806,11.4044264 152.293304,11.7785278 C151.669801,12.1526293 150.932935,12.33968 150.082704,12.33968 Z M150.094041,10.6959009 C150.555055,10.6959009 150.940492,10.5683663 151.250354,10.3132971 C151.560216,10.0582279 151.791668,9.71530157 151.944709,9.28451807 C152.097751,8.85373457 152.174272,8.37382664 152.174272,7.84479427 C152.174272,7.3119831 152.097751,6.82924106 151.944709,6.39656816 C151.791668,5.96389526 151.560216,5.61907952 151.250354,5.36212094 C150.940492,5.10516236 150.555055,4.97668307 150.094041,4.97668307 C149.62169,4.97668307 149.22964,5.10516236 148.917888,5.36212094 C148.606137,5.61907952 148.373741,5.96389526 148.220699,6.39656816 C148.067658,6.82924106 147.991137,7.3119831 147.991137,7.84479427 C147.991137,8.37382664 148.067658,8.85373457 148.220699,9.28451807 C148.373741,9.71530157 148.606137,10.0582279 148.917888,10.3132971 C149.22964,10.5683663 149.62169,10.6959009 150.094041,10.6959009 Z" id="Shape"></path>
                    <polygon id="Path" points="162.002937 0.561152191 162.002937 12.1696339 159.951047 12.1696339 159.951047 0.561152191"></polygon>
                    <path d="M164.111509,12.1696339 L164.111509,3.46327261 L166.163399,3.46327261 L166.163399,12.1696339 L164.111509,12.1696339 Z M165.143122,2.22760415 C164.814366,2.22760415 164.53379,2.11896358 164.301394,1.90168243 C164.068998,1.68440127 163.952799,1.42271919 163.952799,1.11663618 C163.952799,0.806774363 164.069942,0.543202879 164.304228,0.325921727 C164.538514,0.108640576 164.818145,0 165.143122,0 C165.468099,0 165.746786,0.108640576 165.979182,0.325921727 C166.211579,0.543202879 166.327777,0.806774363 166.327777,1.11663618 C166.327777,1.42271919 166.211579,1.68440127 165.979182,1.90168243 C165.746786,2.11896358 165.468099,2.22760415 165.143122,2.22760415 Z" id="Shape"></path>
                    <path d="M175.15317,5.76456342 L173.282663,5.96861876 C173.22976,5.77967863 173.138124,5.60207491 173.007755,5.43580759 C172.877386,5.26954027 172.702617,5.13539278 172.483446,5.03336511 C172.264276,4.93133744 171.995981,4.8803236 171.678561,4.8803236 C171.251557,4.8803236 170.893515,4.97290427 170.604437,5.1580656 C170.315358,5.34322693 170.172708,5.58318089 170.176487,5.8779275 C170.172708,6.13110728 170.266234,6.33705202 170.457063,6.49576173 C170.647893,6.65447144 170.964368,6.78484013 171.406488,6.8868678 L172.891557,7.20428722 C173.715336,7.38189095 174.328447,7.66341174 174.730889,8.04884961 C175.133332,8.43428748 175.336442,8.93875763 175.340221,9.56226007 C175.336442,10.1101864 175.176788,10.5929285 174.861258,11.0104862 C174.545728,11.4280439 174.108331,11.7539656 173.549069,11.9882514 C172.989806,12.2225371 172.347409,12.33968 171.621879,12.33968 C170.556257,12.33968 169.698469,12.1157859 169.048515,11.6679978 C168.398561,11.2202097 168.011233,10.5957626 167.886533,9.79465643 L169.887409,9.6019375 C169.9781,9.99493297 170.170819,10.291569 170.465566,10.4918455 C170.760312,10.6921221 171.143861,10.7922603 171.616211,10.7922603 C172.103677,10.7922603 172.495727,10.6921221 172.792363,10.4918455 C173.088999,10.291569 173.237317,10.0440574 173.237317,9.7493108 C173.237317,9.49990982 173.141903,9.29396508 172.951073,9.13147657 C172.760244,8.96898805 172.464552,8.84428757 172.063999,8.75737511 L170.57893,8.44562389 C169.743814,8.27179897 169.12598,7.97799706 168.725427,7.56421817 C168.324874,7.15043929 168.126487,6.62613042 168.130266,5.99129158 C168.126487,5.4547016 168.272915,4.98896418 168.569551,4.5940793 C168.866187,4.19919443 169.279966,3.89311141 169.810888,3.67583026 C170.34181,3.45854911 170.954921,3.34990854 171.65022,3.34990854 C172.670497,3.34990854 173.474437,3.56718969 174.062041,4.00175199 C174.649645,4.43631429 175.013355,5.0239181 175.15317,5.76456342 Z" id="Path"></path>
                    <path d="M181.382526,3.46327261 L181.382526,5.05036972 L176.377502,5.05036972 L176.377502,3.46327261 L181.382526,3.46327261 Z M177.613171,1.37737356 L179.665061,1.37737356 L179.665061,9.55092366 C179.665061,9.82677625 179.707572,10.0374445 179.792595,10.1829284 C179.877618,10.3284123 179.990038,10.4276059 180.129853,10.4805091 C180.269669,10.5334123 180.4246,10.559864 180.594646,10.559864 C180.723125,10.559864 180.841213,10.550417 180.948909,10.5315229 C181.056605,10.5126289 181.138794,10.4956243 181.195476,10.4805091 L181.541236,12.0846108 C181.431651,12.1223989 181.275775,12.1639657 181.073609,12.2093113 C180.871443,12.2546569 180.624877,12.2811086 180.333909,12.2886662 C179.819992,12.3037814 179.357088,12.2253712 178.945199,12.0534357 C178.533309,11.8815002 178.207388,11.6141499 177.967434,11.2513848 C177.72748,10.8886198 177.609392,10.4351635 177.613171,9.8910159 L177.613171,1.37737356 Z" id="Shape"></path>
                    <path d="M189.113957,7.06825033 L189.113957,12.1696339 L187.062067,12.1696339 L187.062067,0.561152191 L189.068611,0.561152191 L189.068611,4.94267385 L189.170639,4.94267385 C189.374694,4.4514295 189.691169,4.06315753 190.120063,3.77785793 C190.548957,3.49255834 191.095939,3.34990854 191.761008,3.34990854 C192.365616,3.34990854 192.892759,3.47649842 193.342437,3.7296782 C193.792114,3.98285798 194.140709,4.35318064 194.38822,4.84064618 C194.635732,5.32811172 194.759488,5.92327313 194.759488,6.62613042 L194.759488,12.1696339 L192.707598,12.1696339 L192.707598,6.94354984 C192.707598,6.35783543 192.557391,5.90154501 192.256976,5.57467859 C191.956561,5.24781216 191.536169,5.08437895 190.9958,5.08437895 C190.633035,5.08437895 190.309003,5.1627891 190.023703,5.31960941 C189.738404,5.47642972 189.515454,5.70221318 189.354855,5.99695978 C189.194256,6.29170639 189.113957,6.64880324 189.113957,7.06825033 Z" id="Path"></path>
                    <path d="M200.699766,12.33968 C199.826862,12.33968 199.073936,12.1573528 198.440986,11.7926983 C197.808037,11.4280439 197.321516,10.9103479 196.981424,10.2396104 C196.641332,9.56887297 196.471285,8.77815852 196.471285,7.86746709 C196.471285,6.97189086 196.642276,6.18495521 196.984258,5.50666014 C197.326239,4.82836507 197.805203,4.2993327 198.421148,3.91956303 C199.037092,3.53979337 199.760733,3.34990854 200.59207,3.34990854 C201.12866,3.34990854 201.635964,3.4358763 202.113982,3.60781182 C202.592001,3.77974734 203.015227,4.04520822 203.38366,4.40419447 C203.752093,4.76318072 204.042116,5.21947114 204.253729,5.77306573 C204.465342,6.32666031 204.571149,6.98511667 204.571149,7.7484348 L204.571149,8.37760544 L197.43488,8.37760544 L197.43488,6.99456368 L202.604282,6.99456368 C202.600503,6.6015682 202.51548,6.25108426 202.349213,5.94311184 C202.182946,5.63513943 201.951494,5.39235136 201.654858,5.21474764 C201.358222,5.03714391 201.013406,4.94834205 200.620411,4.94834205 C200.200964,4.94834205 199.83253,5.04942502 199.515111,5.25159096 C199.197691,5.4537569 198.951125,5.71827309 198.77541,6.04513952 C198.599696,6.37200594 198.509949,6.73004749 198.506171,7.11926416 L198.506171,8.32659161 C198.506171,8.83295116 198.598751,9.26656876 198.783913,9.62744441 C198.969074,9.98832006 199.227922,10.2641727 199.560457,10.4550022 C199.892991,10.6458317 200.282208,10.7412465 200.728107,10.7412465 C201.026632,10.7412465 201.296816,10.698735 201.53866,10.6137119 C201.780503,10.5286888 201.990227,10.4030437 202.16783,10.2367763 C202.345434,10.070509 202.479582,9.86456428 202.570273,9.61894211 L204.486126,9.83433386 C204.365204,10.3406934 204.135642,10.7818686 203.797439,11.1578595 C203.459236,11.5338503 203.027508,11.8248181 202.502254,12.0307629 C201.977001,12.2367076 201.376171,12.33968 200.699766,12.33968 Z" id="Path"></path>
                    <path d="M206.305619,12.1696339 L206.305619,3.46327261 L208.295159,3.46327261 L208.295159,4.91433283 L208.38585,4.91433283 C208.54456,4.41175208 208.817578,4.02348011 209.204906,3.74951691 C209.592233,3.47555372 210.035297,3.33857213 210.534099,3.33857213 C210.647463,3.33857213 210.774998,3.34329563 210.916703,3.35274264 C211.058408,3.36218964 211.176496,3.37636015 211.270966,3.39525417 L211.270966,5.28276608 C211.184053,5.25253566 211.047072,5.22513934 210.860021,5.20057713 C210.67297,5.17601491 210.492533,5.1637338 210.318708,5.1637338 C209.944606,5.1637338 209.609237,5.24403336 209.312601,5.40463247 C209.015965,5.56523158 208.782624,5.78723624 208.612578,6.07064643 C208.442532,6.35405663 208.357509,6.68092306 208.357509,7.05124572 L208.357509,12.1696339 L206.305619,12.1696339 Z" id="Path"></path>
                    <path d="M216.128617,12.33968 C215.255713,12.33968 214.502787,12.1573528 213.869837,11.7926983 C213.236888,11.4280439 212.750367,10.9103479 212.410275,10.2396104 C212.070183,9.56887297 211.900137,8.77815852 211.900137,7.86746709 C211.900137,6.97189086 212.071127,6.18495521 212.413109,5.50666014 C212.755091,4.82836507 213.234054,4.2993327 213.849999,3.91956303 C214.465944,3.53979337 215.189584,3.34990854 216.020921,3.34990854 C216.557511,3.34990854 217.064815,3.4358763 217.542834,3.60781182 C218.020852,3.77974734 218.444078,4.04520822 218.812511,4.40419447 C219.180945,4.76318072 219.470968,5.21947114 219.682581,5.77306573 C219.894194,6.32666031 220,6.98511667 220,7.7484348 L220,8.37760544 L212.863731,8.37760544 L212.863731,6.99456368 L218.033133,6.99456368 C218.029354,6.6015682 217.944331,6.25108426 217.778064,5.94311184 C217.611797,5.63513943 217.380345,5.39235136 217.083709,5.21474764 C216.787073,5.03714391 216.442257,4.94834205 216.049262,4.94834205 C215.629815,4.94834205 215.261381,5.04942502 214.943962,5.25159096 C214.626543,5.4537569 214.379976,5.71827309 214.204261,6.04513952 C214.028547,6.37200594 213.938801,6.73004749 213.935022,7.11926416 L213.935022,8.32659161 C213.935022,8.83295116 214.027602,9.26656876 214.212764,9.62744441 C214.397925,9.98832006 214.656773,10.2641727 214.989308,10.4550022 C215.321842,10.6458317 215.711059,10.7412465 216.156958,10.7412465 C216.455483,10.7412465 216.725668,10.698735 216.967511,10.6137119 C217.209354,10.5286888 217.419078,10.4030437 217.596682,10.2367763 C217.774285,10.070509 217.908433,9.86456428 217.999124,9.61894211 L219.914977,9.83433386 C219.794055,10.3406934 219.564493,10.7818686 219.22629,11.1578595 C218.888087,11.5338503 218.456359,11.8248181 217.931106,12.0307629 C217.405852,12.2367076 216.805022,12.33968 216.128617,12.33968 Z" id="Path"></path>
                </g>
            </g>
        </g>
    </g>
</svg>