<?xml version="1.0" encoding="UTF-8"?>
<svg width="51px" height="35px" viewBox="0 0 51 35" version="1.1" xmlns="http://www.w3.org/2000/svg" xmlns:xlink="http://www.w3.org/1999/xlink">
    <title>amex</title>
    <g id="UI-design" stroke="none" stroke-width="1" fill="none" fill-rule="evenodd">
        <g id="Checkout-\-card" transform="translate(-82.000000, -626.000000)">
            <g id="American-Express-" transform="translate(82.000000, 626.000000)">
                <path d="M0,2.99921059 C0,1.34279232 1.34319391,0 2.99093889,0 L47.2264524,0 C48.8783024,0 50.2173913,1.35059566 50.2173913,2.99921059 L50.2173913,32.0007894 C50.2173913,33.6572077 48.8741974,35 47.2264524,35 L2.99093889,35 C1.33908895,35 0,33.6494043 0,32.0007894 L0,2.99921059 Z" id="Rectangle-Copy-4" fill="#016FD0"></path>
                <g id="American_Express_logo_(2018)" transform="translate(0.000000, 8.369565)">
                    <path d="M9.75481095,18.1012876 L9.75481095,10.2939608 L18.0652515,10.2939608 L18.9568718,11.4501535 L19.8779755,10.2939608 L50.0428232,10.2939608 L50.0428232,17.5628537 C50.0428232,17.5628537 49.2539591,18.0934808 48.3416013,18.1012876 L31.6387026,18.1012876 L30.6334356,16.8705758 L30.6334356,18.1012876 L27.3392524,18.1012876 L27.3392524,16.0004252 C27.3392524,16.0004252 26.889262,16.2936809 25.9164133,16.2936809 L24.7951537,16.2936809 L24.7951537,18.1012876 L19.8074822,18.1012876 L18.9171359,16.9202984 L18.0131191,18.1012876 L9.75481095,18.1012876 Z" id="path3082" fill="#FFFFFF"></path>
                    <path d="M0.050117157,4.40962362 L1.92415427,0.0636762454 L5.16510577,0.0636762454 L6.22864347,2.49809992 L6.22864347,0.0636762454 L10.2574449,0.0636762454 L10.8905695,1.8232055 L11.5043623,0.0636762454 L29.5895043,0.0636762454 L29.5895043,0.948249119 C29.5895043,0.948249119 30.5402242,0.0636762454 32.1026722,0.0636762454 L37.970639,0.0840757754 L39.0158168,2.48663889 L39.0158168,0.0636762454 L42.3873278,0.0636762454 L43.315267,1.4437553 L43.315267,0.0636762454 L46.7177092,0.0636762454 L46.7177092,7.87099811 L43.315267,7.87099811 L42.4259921,6.48644732 L42.4259921,7.87099811 L37.472495,7.87099811 L36.974351,6.64028629 L35.6426841,6.64028629 L35.152648,7.87099811 L31.7933591,7.87099811 C30.4489218,7.87099811 29.5895043,7.0044867 29.5895043,7.0044867 L29.5895043,7.87099811 L24.524505,7.87099811 L23.5192375,6.64028629 L23.5192375,7.87099811 L4.6849784,7.87099811 L4.18717771,6.64028629 L2.85975715,6.64028629 L2.36547468,7.87099811 L0.050117157,7.87099811 L0.050117157,4.40962362 Z" id="path3080" fill="#FFFFFF"></path>
                    <path d="M2.58745008,1.02615319 L0.0597832029,6.87202934 L1.70542476,6.87202934 L2.17181071,5.70141936 L4.88313211,5.70141936 L5.34710172,6.87202934 L7.02899091,6.87202934 L4.50374022,1.02615319 L2.58745008,1.02615319 Z M3.52263824,2.38666524 L4.34908419,4.43224655 L2.69377614,4.43224655 L3.52263824,2.38666524 L3.52263824,2.38666524 Z" id="path3046" fill="#016FD0" fill-rule="nonzero"></path>
                    <polygon id="path3048" fill="#016FD0" points="7.20297913 6.87104725 7.20297913 1.02516611 9.54152737 1.03380551 10.9017065 4.80285796 12.229315 1.02516611 14.549162 1.02516611 14.549162 6.87104725 13.0799254 6.87104725 13.0799254 2.56355589 11.5225037 6.87104725 10.2339801 6.87104725 8.67221571 2.56355589 8.67221571 6.87104725"></polygon>
                    <polygon id="path3050" fill="#016FD0" points="15.554429 6.87104725 15.554429 1.02516611 20.3487801 1.02516611 20.3487801 2.33279991 17.0391312 2.33279991 17.0391312 3.33275077 20.2714518 3.33275077 20.2714518 4.56346259 17.0391312 4.56346259 17.0391312 5.60187444 20.3487801 5.60187444 20.3487801 6.87104725"></polygon>
                    <path d="M21.1993905,1.02615319 L21.1993905,6.87202934 L22.6686271,6.87202934 L22.6686271,4.79520564 L23.2872527,4.79520564 L25.0488868,6.87202934 L26.844352,6.87202934 L24.9111458,4.71828864 C25.7045455,4.65169106 26.5229562,3.97432895 26.5229562,2.92270128 C26.5229562,1.69252288 25.5522736,1.02615319 24.4689251,1.02615319 L21.1993905,1.02615319 L21.1993905,1.02615319 Z M22.6686271,2.333782 L24.3480996,2.333782 C24.7509819,2.333782 25.044054,2.64726276 25.044054,2.94913791 C25.044054,3.33751166 24.6643299,3.56449382 24.3698485,3.56449382 L22.6686271,3.56449382 L22.6686271,2.333782 L22.6686271,2.333782 Z" id="path3052" fill="#016FD0" fill-rule="nonzero"></path>
                    <polygon id="path3054" fill="#016FD0" points="28.6229017 6.87104725 27.1227338 6.87104725 27.1227338 1.02516611 28.6229017 1.02516611"></polygon>
                    <path d="M32.1800005,6.87104725 L31.8561885,6.87104725 C30.28944,6.87104725 29.3381878,5.64322686 29.3381878,3.97214543 C29.3381878,2.25978136 30.2787896,1.02516611 32.2573287,1.02516611 L33.8812219,1.02516611 L33.8812219,2.40971691 L32.1979585,2.40971691 C31.3947809,2.40971691 30.826756,3.03320372 30.826756,3.98656767 C30.826756,5.11869174 31.4762679,5.59418225 32.4119853,5.59418225 L32.7986261,5.59418225 L32.1800005,6.87104725 Z" id="path3056" fill="#016FD0"></path>
                    <path d="M35.3770396,1.02615319 L32.8493732,6.87202934 L34.4950147,6.87202934 L34.9614004,5.70141936 L37.6727221,5.70141936 L38.1366912,6.87202934 L39.8185804,6.87202934 L37.2933302,1.02615319 L35.3770396,1.02615319 Z M36.3122282,2.38666524 L37.1386737,4.43224655 L35.4833661,4.43224655 L36.3122282,2.38666524 Z" id="path3058" fill="#016FD0" fill-rule="nonzero"></path>
                    <polygon id="path3060" fill="#016FD0" points="39.9901525 6.87104725 39.9901525 1.02516611 41.8581126 1.02516611 44.2432057 4.69807357 44.2432057 1.02516611 45.7124423 1.02516611 45.7124423 6.87104725 43.9048948 6.87104725 41.4593891 3.1019948 41.4593891 6.87104725"></polygon>
                    <polygon id="path3062" fill="#016FD0" points="10.7600784 17.1013368 10.7600784 11.2554556 15.554429 11.2554556 15.554429 12.5630894 12.2447807 12.5630894 12.2447807 13.5630403 15.4771007 13.5630403 15.4771007 14.7937521 12.2447807 14.7937521 12.2447807 15.8321639 15.554429 15.8321639 15.554429 17.1013368"></polygon>
                    <polygon id="path3064" fill="#016FD0" points="34.252397 17.1013368 34.252397 11.2554556 39.0467481 11.2554556 39.0467481 12.5630894 35.7370993 12.5630894 35.7370993 13.5630403 38.9539542 13.5630403 38.9539542 14.7937521 35.7370993 14.7937521 35.7370993 15.8321639 39.0467481 15.8321639 39.0467481 17.1013368"></polygon>
                    <polygon id="path3066" fill="#016FD0" points="15.7405 17.1013368 18.0748464 14.2144493 15.6849205 11.2554556 17.5359652 11.2554556 18.9592879 13.0846932 20.387444 11.2554556 22.1659936 11.2554556 19.8074822 14.1783962 22.1461257 17.1013368 20.2953737 17.1013368 18.9133746 15.3009337 17.5649635 17.1013368"></polygon>
                    <path d="M22.3206501,11.2564427 L22.3206501,17.1023188 L23.8285506,17.1023188 L23.8285506,15.2562511 L25.3751155,15.2562511 C26.683728,15.2562511 27.6756303,14.5656782 27.6756303,13.2226942 C27.6756303,12.110172 26.8976762,11.2564427 25.5660197,11.2564427 L22.3206501,11.2564427 L22.3206501,11.2564427 Z M23.8285506,12.5784938 L25.4572765,12.5784938 C25.8800378,12.5784938 26.1822287,12.8362347 26.1822287,13.2515387 C26.1822287,13.6416921 25.8815634,13.9245836 25.4524437,13.9245836 L23.8285506,13.9245836 L23.8285506,12.5784938 Z" id="path3068" fill="#016FD0" fill-rule="nonzero"></path>
                    <path d="M28.3135886,11.2554556 L28.3135886,17.1013368 L29.7828252,17.1013368 L29.7828252,15.0245081 L30.4014508,15.0245081 L32.1630849,17.1013368 L33.9585501,17.1013368 L32.0253439,14.9475911 C32.8187431,14.8809835 33.6371543,14.2036314 33.6371543,13.1519987 C33.6371543,11.9218253 32.6664717,11.2554556 31.5831232,11.2554556 L28.3135886,11.2554556 L28.3135886,11.2554556 Z M29.7828252,12.5630894 L31.4622977,12.5630894 C31.86518,12.5630894 32.1582516,12.8765652 32.1582516,13.1784403 C32.1582516,13.5668191 31.7785275,13.7937962 31.4840461,13.7937962 L29.7828252,13.7937962 L29.7828252,12.5630894 L29.7828252,12.5630894 Z" id="path3072" fill="#016FD0" fill-rule="nonzero"></path>
                    <path d="M39.7272364,17.1013368 L39.7272364,15.8321639 L42.667643,15.8321639 C43.1027176,15.8321639 43.291102,15.5982972 43.291102,15.3418025 C43.291102,15.096051 43.1033115,14.8475975 42.667643,14.8475975 L41.3389069,14.8475975 C40.1839214,14.8475975 39.5406823,14.1476274 39.5406823,13.0967176 C39.5406823,12.1593811 40.1297333,11.2554556 41.8460304,11.2554556 L44.7071753,11.2554556 L44.0885491,12.5707766 L41.6140456,12.5707766 C41.1410293,12.5707766 40.9954194,12.8176747 40.9954194,13.0534508 C40.9954194,13.2957925 41.1753581,13.5630403 41.5367173,13.5630403 L42.9286256,13.5630403 C44.2161499,13.5630403 44.7748375,14.2895068 44.7748375,15.2408468 C44.7748375,16.26363 44.1522761,17.1013368 42.8585348,17.1013368 L39.7272364,17.1013368 Z" id="path3074" fill="#016FD0"></path>
                    <path d="M45.1196736,17.1013368 L45.1196736,15.8321639 L48.0600782,15.8321639 C48.4951553,15.8321639 48.6835407,15.5982972 48.6835407,15.3418025 C48.6835407,15.096051 48.4957467,14.8475975 48.0600782,14.8475975 L46.7313441,14.8475975 C45.5763586,14.8475975 44.933119,14.1476274 44.933119,13.0967176 C44.933119,12.1593811 45.52217,11.2554556 47.2384671,11.2554556 L50.099611,11.2554556 L49.4809848,12.5707766 L47.0064823,12.5707766 C46.5334665,12.5707766 46.3878566,12.8176747 46.3878566,13.0534508 C46.3878566,13.2957925 46.5677948,13.5630403 46.929154,13.5630403 L48.3210633,13.5630403 C49.6085881,13.5630403 50.1672741,14.2895068 50.1672741,15.2408468 C50.1672741,16.26363 49.5447138,17.1013368 48.2509695,17.1013368 L45.1196736,17.1013368 Z" id="path3076" fill="#016FD0"></path>
                </g>
            </g>
        </g>
    </g>
</svg>