<?xml version="1.0" encoding="UTF-8"?>
<svg width="51px" height="35px" viewBox="0 0 51 35" version="1.1" xmlns="http://www.w3.org/2000/svg" xmlns:xlink="http://www.w3.org/1999/xlink">
    <title>jcb</title>
    <defs>
        <linearGradient x1="100%" y1="43.9848873%" x2="3.38051762%" y2="43.984887%" id="linearGradient-1">
            <stop stop-color="#43C311" offset="0%"></stop>
            <stop stop-color="#288C00" offset="100%"></stop>
        </linearGradient>
        <path d="M3.03113531,0 C2.854783,0.000493528631 2.6789071,0.00649812698 2.50581028,0.0262392722 L2.50581028,0.0262392722 C1.82858882,0.103311993 1.19146547,0.44179038 0.733870528,0.964025926 L0.733870528,0.964025926 C0.394426074,1.3514459 0.158760311,1.83123799 0.0587929264,2.344261 L0.0587929264,2.344261 C0.00948415304,2.59752344 0.00321137833,2.85144392 0.00321137833,3.10807881 L0.00321137833,3.10807881 L0.00321137833,4.81157514 L0.00321137833,5.63733079 L0.00321137833,5.87998237 C0.00321137833,5.94496364 -0.0117956396,5.95006343 0.0574430888,5.95006343 L0.0574430888,5.95006343 L1.14104507,5.95006343 L2.22067694,5.95006343 L3.30689919,5.95006343 C3.66150947,5.95006343 4.01897822,5.93624463 4.37255627,5.96947556 L4.37255627,5.96947556 C4.72089377,6.00229521 5.07550405,6.10503142 5.3572231,6.32679029 L5.3572231,6.32679029 C5.75336073,6.63870038 5.91446782,7.17672885 5.77900764,7.67165581 L5.77900764,7.67165581 C5.64910562,8.14675937 5.25947897,8.4653321 4.81411197,8.59759778 L4.81411197,8.59759778 C4.7648032,8.61223913 4.71493861,8.62482411 4.66467701,8.63551723 L4.66467701,8.63551723 C4.6355364,8.64176859 4.5962323,8.64061702 4.56971196,8.65336651 L4.56971196,8.65336651 C4.55669,8.65961787 4.52342047,8.66743208 4.54779695,8.69145047 L4.54779695,8.69145047 C4.55391092,8.69745507 4.57971664,8.69737281 4.59869377,8.6972083 L4.59869377,8.6972083 C4.60647519,8.69712605 4.61314497,8.69712605 4.61695628,8.69745507 L4.61695628,8.69745507 C4.75670417,8.71135613 4.89573744,8.73644383 5.03135642,8.77477455 L5.03135642,8.77477455 C5.44607417,8.89190535 5.84864338,9.14376946 6.04079673,9.55718194 L6.04079673,9.55718194 C6.26820467,10.0464333 6.15227744,10.6524042 5.78488341,11.0319277 L5.78488341,11.0319277 C5.49554175,11.3309238 5.0916227,11.4835064 4.69183256,11.5340931 L4.69183256,11.5340931 C4.49134198,11.5593453 4.28942216,11.5541633 4.08789934,11.5541633 L4.08789934,11.5541633 L3.00167709,11.5541633 L1.91545484,11.5541633 L0.835743566,11.5541633 L0.292632439,11.5541633 L0.156854658,11.5541633 C0.125887795,11.5541633 0.038386558,11.5382881 0.0129778503,11.5541633 L0.0129778503,11.5541633 C-0.0018703632,11.5635403 0.00321137833,11.5771124 0.00321137833,11.6017888 L0.00321137833,11.6017888 L0.00321137833,12.6414069 L0.00321137833,14.475935 L0.00321137833,16.3297108 L0.00321137833,17.4269895 C0.00321137833,17.4380116 -0.00401422291,17.4861307 0.00321137833,17.4950142 L0.00321137833,17.4950142 C0.0118662194,17.5054606 0.0846780473,17.496248 0.102543545,17.496248 L0.102543545,17.496248 L0.238321326,17.496248 L0.781432453,17.496248 L1.86114372,17.496248 L2.94736598,17.496248 L4.03009453,17.496248 C4.6751581,17.496248 5.2893342,17.3229372 5.81203896,16.9178325 L5.81203896,16.9178325 C6.52102131,16.3685351 6.93978857,15.4951539 6.94336167,14.578589 L6.94336167,14.578589 C6.94352048,14.5431372 6.94359988,14.5076031 6.94359988,14.4721513 L6.94359988,14.4721513 L6.94359988,14.4202486 C6.94352048,14.3417775 6.94336167,14.2632242 6.94336167,14.1847532 L6.94336167,14.1847532 L6.94336167,13.2185064 L6.94336167,11.8153222 L6.94336167,11.8153222 L6.94336167,10.0915912 L6.94336167,10.0915912 L6.94336167,8.1894496 L6.94336167,8.1894496 L6.94336167,6.22117516 L6.94336167,6.22117516 L6.94336167,4.3231463 L6.94336167,4.3231463 L6.94336167,2.63067211 L6.94336167,2.63067211 L6.94336167,1.25767546 L6.94336167,1.25767546 L6.94336167,0.343413673 L6.94336167,0.0084722415 L6.94336167,0.0084722415 L6.93224536,0.0084722415 C6.58716335,0.00904802491 6.24192254,0.0084722415 5.89676112,0.0084722415 L5.89676112,0.0084722415 L4.81411197,0.0084722415 L3.72781031,0.0084722415 C3.51326554,0.0084722415 3.29514766,0.000575783403 3.07766501,0 L3.07766501,0 L3.03113531,0 Z M1.36135077,6.83560167 C1.35250991,6.85574064 1.36135077,6.90028804 1.36135077,6.92195757 L1.36135077,6.92195757 L1.36135077,7.69779123 L1.36135077,8.06037324 C1.36135077,8.09066225 1.34728576,8.19474044 1.36858421,8.21012662 L1.36858421,8.21012662 C1.38682853,8.22325722 1.46575333,8.21012662 1.4892218,8.21012662 L1.4892218,8.21012662 L1.61958434,8.21012662 L1.87042373,8.21012662 L2.36864654,8.21012662 C2.53228288,8.21012662 2.6962407,8.21310718 2.85979666,8.21012662 L2.85979666,8.21012662 C3.06241317,8.20642105 3.25868032,8.14584302 3.40270602,7.99721743 L3.40270602,7.99721743 C3.56569938,7.82909731 3.62396871,7.58179077 3.5743795,7.35486486 L3.5743795,7.35486486 C3.55179512,7.25449224 3.50823377,7.16040297 3.44393659,7.07992765 L3.44393659,7.07992765 C3.32056636,6.9257437 3.13683716,6.84027391 2.9422578,6.82448496 L2.9422578,6.82448496 C2.8498306,6.81699326 2.75651931,6.82045716 2.66385099,6.82045716 L2.66385099,6.82045716 L2.16562818,6.82045716 L1.65768042,6.82045716 L1.41037738,6.82045716 C1.39703571,6.82045716 1.38811447,6.81924883 1.38160439,6.81924883 L1.38160439,6.81924883 C1.37171869,6.81924883 1.36737863,6.82198773 1.36135077,6.83560167 L1.36135077,6.83560167 Z M2.43169761,9.12038381 L1.36102114,9.12038381 L1.36102114,9.16330861 L1.36102114,9.16330861 L1.36102114,9.93928255 L1.36102114,10.3974798 L1.36102114,10.5647701 C1.36102114,10.588645 1.35151317,10.6390566 1.36102114,10.6610182 L1.36102114,10.6610182 C1.37544156,10.69421 1.50847388,10.6754928 1.55110128,10.6754928 L1.55110128,10.6754928 L1.82207837,10.6754928 L2.35745622,10.6754928 L2.8957657,10.6754928 C3.07071231,10.6754928 3.23852795,10.6642625 3.39358707,10.568264 L3.39358707,10.568264 C3.58200331,10.451635 3.71036088,10.2479085 3.74260874,10.0209728 L3.74260874,10.0209728 C3.77953135,9.76151065 3.69570277,9.49298107 3.50871272,9.31687292 L3.50871272,9.31687292 C3.35737756,9.17437256 3.16967442,9.12196438 2.97008632,9.12038381 L2.97008632,9.12038381 C2.91018612,9.11988469 2.85036515,9.11971831 2.79054418,9.11971831 L2.79054418,9.11971831 C2.67090225,9.11971831 2.55126031,9.12038381 2.43169761,9.12038381 L2.43169761,9.12038381 Z" id="path-2"></path>
        <linearGradient x1="0.25781251%" y1="49.7500002%" x2="101.257813%" y2="49.7500002%" id="linearGradient-4">
            <stop stop-color="#21469E" offset="0%"></stop>
            <stop stop-color="#1E81EB" offset="100%"></stop>
        </linearGradient>
        <path d="M2.38565543,0.0389204344 C1.98150962,0.106146639 1.5935907,0.265531167 1.25459341,0.500452605 L1.25459341,0.500452605 C0.473534038,1.04188275 0.00616764406,1.9586112 0.00271340636,2.92331136 L0.00271340636,2.92331136 C0.00174943305,3.20694505 0.00271340636,3.49057875 0.00271340636,3.77429472 L0.00271340636,3.77429472 L0.00271340636,5.5808447 L0.00271340636,7.68123161 L0.00271340636,9.41372578 L0.00271340636,9.9365597 L0.00271340636,10.0746326 C0.00271340636,10.1281174 0.0022314197,10.1169267 0.0615961095,10.1458085 L0.0615961095,10.1458085 C0.127628281,10.1778993 0.193981778,10.209085 0.260656599,10.2394479 L0.260656599,10.2394479 C0.792930529,10.4811166 1.35428432,10.6650219 1.93363228,10.737432 L1.93363228,10.737432 C2.35006875,10.7895179 2.79478177,10.8039999 3.18808289,10.6337539 L3.18808289,10.6337539 C3.5031415,10.4974089 3.75425654,10.2457838 3.88326831,9.91952686 L3.88326831,9.91952686 C3.96625034,9.70986668 3.99002835,9.48835757 3.99002835,9.26405079 L3.99002835,9.26405079 L3.99002835,6.77758634 L3.99002835,6.21780682 L3.99002835,6.03925007 C3.99002835,6.02139439 3.98014762,5.96568798 3.99002835,5.95071225 L3.99002835,5.95071225 C4.00231901,5.93203373 4.09968031,5.94396494 4.12771587,5.94396494 L4.12771587,5.94396494 L4.33995066,5.94396494 L4.75839541,5.94396494 L6.43795825,5.94396494 L6.43795825,5.99522801 L6.43795825,8.44984847 C6.43795825,8.7380078 6.43852056,9.02624941 6.43795825,9.31440873 L6.43795825,9.31440873 C6.43739593,9.65012834 6.38935793,9.9870822 6.2552853,10.295648 L6.2552853,10.295648 C6.12169467,10.6032264 5.9074516,10.8629154 5.64268026,11.0606444 L5.64268026,11.0606444 C5.00035271,11.5403614 4.14924461,11.6653511 3.3730051,11.7013093 L3.3730051,11.7013093 C2.81767614,11.7270642 2.26009791,11.7048475 1.70717888,11.648236 L1.70717888,11.648236 C1.1357837,11.5898142 0.557721041,11.502922 0.00271340636,11.3496265 L0.00271340636,11.3496265 L0.00271340636,11.5486721 L0.00271340636,12.9135204 L0.00271340636,14.9047984 L0.00271340636,16.7036137 L0.00271340636,17.2759004 L0.00271340636,17.4365192 C0.00271340636,17.4450767 -0.00339175795,17.4872885 0.00271340636,17.4942004 L0.00271340636,17.4942004 C0.0142810861,17.5072013 0.119514839,17.4942827 0.140320597,17.4942827 L0.140320597,17.4942827 L0.280980369,17.4942827 L0.568967396,17.4942827 L1.1383543,17.4942827 L2.27953804,17.4942827 L3.42120377,17.4942827 C3.9051987,17.4942827 4.40164496,17.5284306 4.87471486,17.4059094 L4.87471486,17.4059094 C5.70196462,17.1918059 6.40486183,16.59253 6.76265659,15.7990633 L6.76265659,15.7990633 C6.95906615,15.3636152 7.02341137,14.9006842 7.02341137,14.4264803 L7.02341137,14.4264803 L7.02341137,13.645027 L7.02341137,12.3284796 L7.02341137,10.6223164 L7.02341137,8.68040885 L7.02341137,6.63210785 L7.02341137,4.63029743 L7.02341137,2.82728568 L7.02341137,1.35373993 L7.02341137,0.362873395 L7.02341137,0.000246852649 L6.73968189,0.000246852649 L5.55375373,0.000246852649 L4.36734357,0.000246852649 L3.18454832,0.000246852649 C3.13185111,0.000246852649 3.07923423,0 3.02661736,0 L3.02661736,0 C2.81221363,0 2.59837221,0.00353822131 2.38565543,0.0389204344" id="path-5"></path>
        <linearGradient x1="100%" y1="50%" x2="0%" y2="50%" id="linearGradient-7">
            <stop stop-color="#F42D3E" offset="0%"></stop>
            <stop stop-color="#9C0017" offset="100%"></stop>
        </linearGradient>
        <path d="M2.63745087,0.00720579958 C2.33310722,0.0271036325 2.03193961,0.097933367 1.74982821,0.217647901 L1.74982821,0.217647901 C1.12788096,0.481887847 0.6107429,0.975075697 0.306081647,1.59387374 L0.306081647,1.59387374 C0.106547185,1.99903619 0.00570804247,2.44939867 0.00388182178,2.90336404 L0.00388182178,2.90336404 C0.00356421818,2.97681407 0.00388182178,3.05026409 0.00388182178,3.123796 L0.00388182178,3.123796 L0.00388182178,4.41183268 L0.00388182178,6.70163926 C0.0228586369,6.68477114 0.0423118574,6.66814867 0.0620826814,6.65168997 L0.0620826814,6.65168997 C0.131717271,6.59355227 0.204289693,6.53918123 0.278926539,6.48824933 L0.278926539,6.48824933 C0.744057011,6.17127603 1.28676216,5.99375134 1.83121413,5.8889397 L1.83121413,5.8889397 C2.27442996,5.80361649 2.72566527,5.76693242 3.17610658,5.75800705 L3.17610658,5.75800705 C3.619243,5.74932734 4.06364984,5.76488531 4.50440423,5.81409765 L4.50440423,5.81409765 C4.95413093,5.86421071 5.4010786,5.94241001 5.84326221,6.04017961 L5.84326221,6.04017961 C5.89757242,6.05221657 5.95180324,6.06449919 6.00595465,6.0772731 L6.00595465,6.0772731 C6.03493598,6.08415137 6.14601784,6.09348615 6.16142161,6.1164137 L6.16142161,6.1164137 C6.17245834,6.13279051 6.16142161,6.19813401 6.16142161,6.21704924 L6.16142161,6.21704924 L6.16142161,6.45320294 L6.16142161,7.34352861 C6.0986155,7.31085686 6.03549179,7.27884018 5.97181226,7.247888 L5.97181226,7.247888 C5.49072221,7.01329009 4.98358866,6.83904076 4.4572401,6.75339 L4.4572401,6.75339 C3.75009568,6.63817909 2.94989341,6.64137257 2.33922109,7.07773287 L2.33922109,7.07773287 C1.74982821,7.49894461 1.54354467,8.24638254 1.60722419,8.95713641 L1.60722419,8.95713641 C1.6692363,9.64881129 2.0401179,10.2418158 2.66452658,10.5183384 L2.66452658,10.5183384 C3.28147157,10.7915037 3.99735008,10.7547378 4.64343521,10.6229863 L4.64343521,10.6229863 C5.17351562,10.5148993 5.67890234,10.3169035 6.16142161,10.0687129 L6.16142161,10.0687129 L6.16142161,10.1566564 L6.16142161,11.1942915 C6.16142161,11.2136162 6.17261714,11.2792053 6.16142161,11.2958278 L6.16142161,11.2958278 C6.14633544,11.3181003 6.03366556,11.3275988 6.00595465,11.3341495 L6.00595465,11.3341495 C5.89320537,11.36068 5.77997969,11.3855728 5.6665952,11.4090735 L5.6665952,11.4090735 C5.22107675,11.5015206 4.77095305,11.5748888 4.31820912,11.6166496 L4.31820912,11.6166496 C3.8749933,11.6575917 3.42733102,11.6656163 2.98276539,11.6483388 L2.98276539,11.6483388 C2.52898924,11.6308156 2.07465729,11.5825859 1.63088566,11.4811315 L1.63088566,11.4811315 C1.04585983,11.3474967 0.463533632,11.117648 0.00388182178,10.7110117 L0.00388182178,10.7110117 L0.00388182178,10.9021291 L0.00388182178,12.2384774 L0.00388182178,14.2323549 L0.00388182178,16.173499 L0.00388182178,17.3245436 C0.00388182178,17.3381364 -0.00485227722,17.3949639 0.00388182178,17.4059364 L0.00388182178,17.4059364 C0.0228586369,17.4296828 0.180707626,17.4101944 0.217708445,17.4101944 L0.217708445,17.4101944 L0.794000177,17.4101944 L1.95269751,17.4101944 L3.10528097,17.4101944 C3.51205178,17.4101944 3.92596868,17.4325487 4.33178668,17.4026611 L4.33178668,17.4026611 C5.06767422,17.3485357 5.76457592,16.9898015 6.24971541,16.4163672 L6.24971541,16.4163672 C6.71436948,15.8670888 6.94359988,15.1719748 6.94359988,14.4474644 L6.94359988,14.4474644 L6.94359988,13.7977142 L6.94359988,12.5555326 L6.94359988,10.8778095 L6.94359988,8.91996104 L6.94359988,6.84583714 L6.94359988,4.79398571 L6.94359988,2.93480753 L6.94359988,1.40873382 L6.94359988,0.379041435 L6.94359988,0.00131014538 L6.73080547,0.00131014538 L4.94166499,0.00131014538 L3.15951179,0.00131014538 C3.07526743,0.00131014538 2.99070548,0 2.90622292,0 L2.90622292,0 C2.8164999,0 2.72677688,0.00147391355 2.63745087,0.00720579958" id="path-8"></path>
    </defs>
    <g id="UI-design" stroke="none" stroke-width="1" fill="none" fill-rule="evenodd">
        <g id="Checkout-\-card" transform="translate(-144.000000, -711.000000)">
            <g id="JCB-" transform="translate(144.000000, 711.000000)">
                <path d="M47.2264524,0.5 C47.9132946,0.5 48.5349691,0.780831555 48.9854066,1.23251476 C49.4374487,1.68580704 49.7173913,2.31131345 49.7173913,2.99921059 L49.7173913,2.99921059 L49.7173913,32.0007894 C49.7173913,32.6906339 49.4378315,33.3151905 48.9867957,33.7674736 C48.5356777,34.2198393 47.9128888,34.5 47.2264524,34.5 L47.2264524,34.5 L2.99093889,34.5 C2.30409666,34.5 1.68242221,34.2191684 1.23198473,33.7674852 C0.779942615,33.314193 0.5,32.6886865 0.5,32.0007894 L0.5,32.0007894 L0.5,2.99921059 C0.5,2.30936611 0.779559825,1.6848095 1.23059559,1.23252636 C1.68171362,0.780160722 2.30450253,0.5 2.99093889,0.5 L2.99093889,0.5 Z" id="Rectangle-Copy-19" stroke="#E6E7E8" fill="#FFFFFF"></path>
                <g id="Page-1-Copy" transform="translate(13.695652, 9.130435)">
                    <g id="Group-3" transform="translate(15.802676, 0.000000)">
                        <mask id="mask-3" fill="white">
                            <use xlink:href="#path-2"></use>
                        </mask>
                        <use id="Clip-2" fill="url(#linearGradient-1)" xlink:href="#path-2"></use>
                    </g>
                    <g id="Group-6">
                        <mask id="mask-6" fill="white">
                            <use xlink:href="#path-5"></use>
                        </mask>
                        <use id="Clip-5" fill="url(#linearGradient-4)" xlink:href="#path-5"></use>
                    </g>
                    <g id="Group-9" transform="translate(7.901338, 0.000000)">
                        <mask id="mask-9" fill="white">
                            <use xlink:href="#path-8"></use>
                        </mask>
                        <use id="Clip-8" fill="url(#linearGradient-7)" xlink:href="#path-8"></use>
                    </g>
                </g>
            </g>
        </g>
    </g>
</svg>