<?xml version="1.0" encoding="UTF-8"?>
<svg width="51px" height="35px" viewBox="0 0 51 35" version="1.1" xmlns="http://www.w3.org/2000/svg" xmlns:xlink="http://www.w3.org/1999/xlink">
    <title>master</title>
    <g id="UI-design" stroke="none" stroke-width="1" fill="none" fill-rule="evenodd">
        <g id="Checkout-\-card" transform="translate(-82.000000, -666.000000)">
            <g id="Mastercard-" transform="translate(82.000000, 666.000000)">
                <path d="M47.2264524,0.5 C47.9132946,0.5 48.5349691,0.780831555 48.9854066,1.23251476 C49.4374487,1.68580704 49.7173913,2.31131345 49.7173913,2.99921059 L49.7173913,2.99921059 L49.7173913,32.0007894 C49.7173913,32.6906339 49.4378315,33.3151905 48.9867957,33.7674736 C48.5356777,34.2198393 47.9128888,34.5 47.2264524,34.5 L47.2264524,34.5 L2.99093889,34.5 C2.30409666,34.5 1.68242221,34.2191684 1.23198473,33.7674852 C0.779942615,33.314193 0.5,32.6886865 0.5,32.0007894 L0.5,32.0007894 L0.5,2.99921059 C0.5,2.30936611 0.779559825,1.6848095 1.23059559,1.23252636 C1.68171362,0.780160722 2.30450253,0.5 2.99093889,0.5 L2.99093889,0.5 Z" id="Rectangle-Copy-4" stroke="#E6E7E8" fill="#FFFFFF"></path>
                <g id="mc_symbol" transform="translate(9.891304, 7.608696)">
                    <g id="Group" opacity="0" fill="#FFFFFF">
                        <rect id="Rectangle" x="0" y="0" width="30.294137" height="19.7598701"></rect>
                    </g>
                    <rect id="Rectangle" fill="#FF5F00" x="11.1525033" y="3.44262869" width="7.9914361" height="12.8723388"></rect>
                    <path d="M11.9756258,9.87993503 C11.9736193,7.36845361 13.1426634,4.99553589 15.1459157,3.44490255 C11.7427053,0.807233164 6.85555867,1.19143252 3.91903113,4.32749563 C0.9825036,7.46355875 0.9825036,12.2985852 3.91903113,15.4346483 C6.85555867,18.5707114 11.7427053,18.9549108 15.1459157,16.3172414 C13.1420259,14.7661156 11.9729104,12.3922144 11.9756258,9.87993503 Z" id="Path" fill="#EB001B"></path>
                    <path d="M27.8541765,15.4830676 L27.8541765,14.7800373 L28.0208432,14.7800373 L28.0208432,14.6345827 L27.6241765,14.6345827 L27.6241765,14.7800373 L27.7808432,14.7800373 L27.7808432,15.4830676 L27.8541765,15.4830676 Z M28.6241765,15.4830676 L28.6241765,14.6345827 L28.5041765,14.6345827 L28.3641765,15.2406433 L28.2241765,14.6345827 L28.1041765,14.6345827 L28.1041765,15.4830676 L28.1908432,15.4830676 L28.1908432,14.8406433 L28.3208432,15.3921585 L28.4108432,15.3921585 L28.5408432,14.8406433 L28.5408432,15.4830676 L28.6241765,15.4830676 Z" id="Shape" fill="#F79E1B" fill-rule="nonzero"></path>
                    <path d="M28.5764163,9.87993503 C28.5764163,13.014087 26.7617242,15.8730764 23.9032374,17.2426795 C21.0447506,18.6122826 17.6442401,18.2520475 15.1459157,16.3149675 C17.1482939,14.7630177 18.317426,12.3904155 18.317426,9.8787981 C18.317426,7.3671807 17.1482939,4.99457847 15.1459157,3.44262869 C17.6442401,1.50554865 21.0447506,1.14531358 23.9032374,2.51491668 C26.7617242,3.88451979 28.5764163,6.74350921 28.5764163,9.87766117 L28.5764163,9.87993503 Z" id="Path" fill="#F79E1B"></path>
                </g>
            </g>
        </g>
    </g>
</svg>