<?xml version="1.0" encoding="UTF-8"?>
<svg width="51px" height="35px" viewBox="0 0 51 35" version="1.1" xmlns="http://www.w3.org/2000/svg" xmlns:xlink="http://www.w3.org/1999/xlink">
    <title>visa</title>
    <g id="UI-design" stroke="none" stroke-width="1" fill="none" fill-rule="evenodd">
        <g id="Checkout-\-card" transform="translate(-82.000000, -586.000000)">
            <g id="Visa-" transform="translate(82.000000, 586.000000)">
                <path d="M47.2264524,0.5 C47.9132946,0.5 48.5349691,0.780831555 48.9854066,1.23251476 C49.4374487,1.68580704 49.7173913,2.31131345 49.7173913,2.99921059 L49.7173913,2.99921059 L49.7173913,32.0007894 C49.7173913,32.6906339 49.4378315,33.3151905 48.9867957,33.7674736 C48.5356777,34.2198393 47.9128888,34.5 47.2264524,34.5 L47.2264524,34.5 L2.99093889,34.5 C2.30409666,34.5 1.68242221,34.2191684 1.23198473,33.7674852 C0.779942615,33.314193 0.5,32.6886865 0.5,32.0007894 L0.5,32.0007894 L0.5,2.99921059 C0.5,2.30936611 0.779559825,1.6848095 1.23059559,1.23252636 C1.68171362,0.780160722 2.30450253,0.5 2.99093889,0.5 L2.99093889,0.5 Z" id="Rectangle-Copy-4" stroke="#E6E7E8" fill="#FFFFFF"></path>
                <g id="Visa_Inc._logo" transform="translate(8.369565, 12.173913)" fill="#0742A6">
                    <polygon id="polygon9" points="14.4735226 10.4573851 11.7802768 10.4573851 13.4648257 0.313384291 16.1579242 0.313384291"></polygon>
                    <path d="M24.236778,0.561376166 C23.7055515,0.356126674 22.8629825,0.12950599 21.8211484,0.12950599 C19.1614816,0.12950599 17.2885661,1.51074472 17.2770785,3.48550014 C17.254987,4.94247034 18.6180313,5.75170698 19.6374794,6.23750715 C20.6794608,6.73392119 21.0336608,7.0579314 21.0336608,7.50041545 C21.0230569,8.17999064 20.1916809,8.49324354 19.41627,8.49324354 C18.3410041,8.49324354 17.7648584,8.33174044 16.8892994,7.95365682 L16.5346575,7.79158 L16.1577769,10.0686876 C16.7894459,10.3489514 17.953225,10.5976604 19.1614816,10.6085612 C21.9874236,10.6085612 23.8272019,9.24869363 23.8489989,7.14427674 C23.8597501,5.98951527 23.1400097,5.10469059 21.5883042,4.38165586 C20.6463236,3.91751375 20.0694414,3.60454772 20.0694414,3.1296483 C20.0804872,2.69792155 20.5573685,2.25572436 21.620705,2.25572436 C22.496264,2.2340663 23.1395678,2.43902894 23.6269059,2.644135 L23.8705012,2.75185154 L24.236778,0.561376166 L24.236778,0.561376166 L24.236778,0.561376166 Z" id="path11"></path>
                    <path d="M27.8163339,6.86372608 C28.0381323,6.28096668 28.8915998,4.02551715 28.8915998,4.02551715 C28.8804068,4.04717521 29.1129564,3.43200045 29.2459471,3.05434712 L29.4341665,3.92841449 C29.4341665,3.92841449 29.9441851,6.35655472 30.0549371,6.86372608 C29.6340208,6.86372608 28.3482967,6.86372608 27.8163339,6.86372608 L27.8163339,6.86372608 Z M31.1408069,0.313384291 L29.0575804,0.313384291 C28.4151602,0.313384291 27.9270858,0.49668887 27.6499114,1.1550363 L23.6494392,10.4572417 L26.4753811,10.4572417 C26.4753811,10.4572417 26.9406277,9.20523409 27.0406284,8.93558416 C27.3506455,8.93558416 30.0997091,8.93558416 30.498534,8.93558416 C30.5758541,9.29172287 30.8198913,10.4572417 30.8198913,10.4572417 L33.3135774,10.4572417 L31.1408069,0.313384291 L31.1408069,0.313384291 L31.1408069,0.313384291 Z" id="path13" fill-rule="nonzero"></path>
                    <path d="M9.53077514,0.313384291 L6.89319986,7.23062209 L6.6049797,5.82772532 C6.11734713,4.20896516 4.5880277,2.45021654 2.88138733,1.57571887 L5.29731144,10.4466278 L8.14534487,10.4466278 L12.3786613,0.313384291 L9.53077514,0.313384291 L9.53077514,0.313384291 L9.53077514,0.313384291 Z" id="path15"></path>
                    <path d="M4.44399126,0.313384291 L0.110821349,0.313384291 L0.0664911147,0.518346923 C3.44663463,1.36014236 5.68523781,3.38925807 6.6049797,5.82815561 L5.66299905,1.16608047 C5.50791687,0.518203492 5.03133004,0.334755482 4.44399126,0.313384291 L4.44399126,0.313384291 Z" id="path17"></path>
                </g>
            </g>
        </g>
    </g>
</svg>